<svg id="svg" version="1.1" width="400" height="400" viewBox="0 0 400 400" xmlns="http://www.w3.org/2000/svg" xmlns:xlink="http://www.w3.org/1999/xlink" ><g id="svgg"><path id="path0" d="M192.012 50.384 C 191.688 50.589,191.557 50.891,191.721 51.054 C 191.885 51.218,192.323 51.048,192.695 50.676 C 193.418 49.953,192.985 49.769,192.012 50.384 M188.631 51.500 C 188.464 51.665,187.955 51.800,187.499 51.800 C 187.043 51.800,186.605 51.995,186.524 52.233 C 186.288 52.932,187.718 52.744,188.754 51.940 C 189.279 51.533,189.534 51.200,189.321 51.200 C 189.108 51.200,188.797 51.335,188.631 51.500 M222.100 51.873 C 222.895 52.770,223.030 53.389,222.338 52.962 C 222.050 52.784,221.985 52.852,222.166 53.145 C 222.325 53.402,222.623 53.509,222.828 53.383 C 223.492 52.973,223.222 52.040,222.300 51.556 C 221.427 51.098,221.421 51.107,222.100 51.873 M178.184 54.427 C 178.039 54.661,178.016 54.949,178.133 55.067 C 178.420 55.353,179.200 54.848,179.200 54.376 C 179.200 53.865,178.509 53.899,178.184 54.427 M159.762 56.100 C 159.006 56.992,159.007 56.994,159.800 56.352 C 160.240 55.996,160.870 55.605,161.200 55.484 C 161.709 55.297,161.704 55.258,161.162 55.232 C 160.811 55.214,160.181 55.605,159.762 56.100 M162.956 55.858 C 163.747 56.287,163.957 56.579,163.622 56.786 C 163.263 57.008,163.309 57.156,163.794 57.342 C 164.255 57.519,164.381 57.869,164.208 58.498 C 163.990 59.296,164.014 59.317,164.412 58.679 C 164.750 58.139,164.743 57.813,164.383 57.379 C 164.118 57.061,164.059 56.794,164.251 56.787 C 164.443 56.779,164.175 56.419,163.656 55.987 C 163.136 55.554,162.506 55.207,162.256 55.216 C 162.005 55.225,162.320 55.514,162.956 55.858 M174.996 55.607 C 174.858 55.830,174.577 55.909,174.372 55.783 C 174.168 55.656,174.000 55.733,174.000 55.953 C 174.000 56.734,174.667 56.748,175.325 55.980 C 175.692 55.551,175.825 55.200,175.620 55.200 C 175.415 55.200,175.134 55.383,174.996 55.607 M234.400 55.556 C 234.400 55.751,234.104 55.886,233.743 55.856 C 233.382 55.825,232.992 56.070,232.878 56.400 C 232.713 56.875,232.787 56.903,233.235 56.534 C 233.546 56.278,233.935 56.053,234.100 56.034 C 234.265 56.015,234.625 55.924,234.900 55.832 C 235.175 55.739,235.670 55.573,236.000 55.463 C 236.330 55.353,236.105 55.249,235.500 55.232 C 234.895 55.214,234.400 55.360,234.400 55.556 M238.000 55.491 C 238.550 55.591,239.285 55.927,239.633 56.238 C 240.180 56.726,240.267 56.723,240.267 56.219 C 240.267 55.898,240.129 55.720,239.961 55.824 C 239.793 55.928,239.542 55.830,239.404 55.607 C 239.266 55.383,238.668 55.225,238.076 55.254 L 237.000 55.309 238.000 55.491 M222.267 55.867 C 221.668 56.466,221.973 57.320,222.600 56.800 C 222.930 56.526,223.200 56.144,223.200 55.951 C 223.200 55.537,222.647 55.487,222.267 55.867 M162.110 61.200 C 162.036 62.178,162.516 62.230,163.251 61.323 C 163.624 60.863,163.640 60.743,163.300 60.947 C 163.025 61.112,162.800 61.057,162.800 60.824 C 162.800 60.045,162.171 60.388,162.110 61.200 M214.317 60.670 C 214.703 60.825,214.720 61.014,214.386 61.416 C 214.036 61.839,214.112 61.942,214.742 61.894 C 215.183 61.861,215.512 61.646,215.472 61.417 C 215.383 60.902,214.735 60.404,214.200 60.438 C 213.980 60.452,214.033 60.556,214.317 60.670 M209.550 61.087 C 209.523 61.149,209.475 61.335,209.444 61.500 C 209.413 61.665,209.253 62.013,209.087 62.272 C 208.451 63.273,209.454 63.052,210.523 61.956 L 211.645 60.805 210.623 60.890 C 210.060 60.936,209.578 61.025,209.550 61.087 M145.219 63.413 C 144.460 64.176,144.055 64.800,144.319 64.800 C 144.584 64.800,144.800 64.630,144.800 64.422 C 144.800 64.214,145.282 63.809,145.870 63.522 C 146.459 63.235,147.014 62.775,147.104 62.500 C 147.390 61.622,146.641 61.985,145.219 63.413 M158.236 62.342 C 158.103 62.556,158.221 62.811,158.498 62.908 C 158.829 63.024,158.659 63.372,158.000 63.929 C 157.230 64.579,157.151 64.776,157.657 64.787 C 158.019 64.794,158.418 64.530,158.545 64.200 C 158.671 63.870,159.029 63.600,159.338 63.600 C 159.648 63.600,160.126 63.330,160.400 63.000 C 160.714 62.622,160.741 62.400,160.473 62.400 C 160.239 62.400,159.919 62.607,159.763 62.861 C 159.563 63.183,159.328 63.116,158.977 62.637 C 158.694 62.249,158.372 62.121,158.236 62.342 M205.149 62.677 C 204.836 63.062,204.803 63.232,205.072 63.070 C 205.332 62.914,205.658 62.970,205.796 63.193 C 205.934 63.417,206.262 63.597,206.524 63.594 C 206.837 63.590,206.811 63.468,206.449 63.239 C 206.146 63.047,206.021 62.689,206.172 62.445 C 206.610 61.736,205.754 61.930,205.149 62.677 M155.927 64.040 C 155.307 64.690,155.305 64.788,155.902 65.273 C 156.455 65.723,156.514 65.704,156.306 65.149 C 156.172 64.791,156.261 64.299,156.505 64.055 C 156.748 63.812,156.869 63.550,156.773 63.473 C 156.678 63.396,156.297 63.651,155.927 64.040 M199.900 64.033 C 199.515 64.455,199.374 64.800,199.587 64.800 C 199.801 64.800,199.864 65.088,199.729 65.440 C 199.515 65.999,199.591 66.012,200.341 65.544 C 201.120 65.058,201.134 64.984,200.499 64.733 C 200.114 64.581,200.006 64.444,200.257 64.428 C 200.509 64.413,200.818 64.130,200.945 63.800 C 201.257 62.987,200.753 63.100,199.900 64.033 M203.867 63.867 C 203.348 64.386,203.611 64.690,204.500 64.596 C 205.819 64.458,205.858 64.425,205.200 64.000 C 204.484 63.538,204.222 63.511,203.867 63.867 M253.002 64.402 C 253.818 65.304,254.145 65.242,253.767 64.257 C 253.628 63.896,253.236 63.600,252.895 63.600 C 252.372 63.600,252.388 63.724,253.002 64.402 M142.415 65.382 C 142.027 65.849,142.092 65.943,142.770 65.892 C 143.631 65.827,143.861 65.409,143.245 65.028 C 143.050 64.907,142.677 65.067,142.415 65.382 M195.467 65.067 C 194.981 65.553,195.190 65.979,195.800 65.745 C 196.130 65.618,196.400 65.354,196.400 65.157 C 196.400 64.738,195.849 64.684,195.467 65.067 M150.587 67.615 C 149.684 68.613,149.428 70.241,150.286 69.528 C 150.734 69.157,150.740 69.009,150.319 68.741 C 149.939 68.501,149.931 68.411,150.286 68.406 C 150.553 68.403,150.965 68.040,151.200 67.600 C 151.748 66.576,151.521 66.582,150.587 67.615 M187.600 67.800 C 187.326 68.130,186.893 68.400,186.637 68.400 C 186.381 68.400,186.171 68.777,186.171 69.238 C 186.171 70.053,186.192 70.051,186.939 69.138 C 187.361 68.622,187.832 68.235,187.986 68.278 C 188.140 68.321,188.267 68.096,188.267 67.778 C 188.267 67.057,188.215 67.059,187.600 67.800 M184.126 69.500 C 183.989 69.885,183.805 70.333,183.718 70.495 C 183.630 70.658,183.799 70.698,184.094 70.586 C 184.388 70.473,184.629 70.025,184.629 69.590 C 184.629 68.614,184.452 68.582,184.126 69.500 M180.400 70.600 C 180.002 71.080,180.004 71.200,180.413 71.200 C 180.751 71.200,180.666 71.496,180.162 72.073 L 179.400 72.945 180.457 72.173 C 181.058 71.733,181.338 71.290,181.105 71.145 C 180.881 71.004,180.821 70.689,180.972 70.445 C 181.374 69.795,180.980 69.902,180.400 70.600 M146.626 70.757 C 146.476 71.001,146.554 71.200,146.800 71.200 C 147.046 71.200,147.131 71.389,146.988 71.619 C 146.813 71.903,146.531 71.875,146.121 71.535 C 145.623 71.121,145.423 71.154,145.013 71.715 C 144.737 72.092,144.352 72.413,144.156 72.429 C 143.335 72.495,141.577 75.106,142.194 75.342 C 142.539 75.475,142.750 75.367,142.695 75.086 C 142.643 74.819,142.819 74.643,143.086 74.695 C 143.353 74.748,143.487 74.568,143.384 74.295 C 143.280 74.023,143.736 73.440,144.397 73.000 C 145.057 72.560,145.598 72.031,145.599 71.824 C 145.599 71.616,145.846 71.784,146.147 72.196 C 146.680 72.924,146.706 72.923,147.119 72.151 C 147.580 71.291,147.112 69.971,146.626 70.757 M253.377 71.767 C 252.950 72.079,252.694 72.427,252.807 72.540 C 252.920 72.653,253.459 72.402,254.006 71.982 C 255.145 71.107,254.555 70.906,253.377 71.767 M250.750 72.200 C 250.722 72.310,250.675 72.535,250.644 72.700 C 250.613 72.865,250.445 73.225,250.270 73.500 C 249.821 74.207,250.600 74.123,251.200 73.400 C 251.571 72.953,251.578 72.800,251.225 72.800 C 250.965 72.800,250.864 72.620,251.000 72.400 C 251.136 72.180,251.147 72.000,251.024 72.000 C 250.901 72.000,250.778 72.090,250.750 72.200 M174.223 73.433 C 173.796 73.745,173.672 74.000,173.947 74.000 C 174.222 74.000,174.336 74.180,174.200 74.400 C 174.064 74.620,174.163 74.800,174.419 74.800 C 174.676 74.800,174.786 74.542,174.665 74.226 C 174.544 73.910,174.660 73.575,174.922 73.481 C 175.185 73.387,175.310 73.210,175.199 73.087 C 175.089 72.965,174.650 73.121,174.223 73.433 M130.481 74.815 C 128.727 76.500,128.147 77.484,129.688 76.162 C 130.904 75.117,131.310 74.711,131.949 73.898 C 132.869 72.728,132.251 73.114,130.481 74.815 M248.046 73.524 C 248.019 73.832,247.795 73.924,247.500 73.747 C 247.101 73.507,247.100 73.571,247.497 74.060 C 247.770 74.397,247.875 74.792,247.730 74.937 C 247.585 75.082,247.655 75.200,247.884 75.200 C 248.114 75.200,248.549 74.895,248.851 74.523 C 249.158 74.145,249.193 73.971,248.930 74.128 C 248.656 74.292,248.384 74.116,248.277 73.705 C 248.176 73.317,248.072 73.236,248.046 73.524 M140.400 75.800 C 140.400 76.130,140.130 76.400,139.800 76.400 C 139.470 76.400,139.200 76.586,139.200 76.814 C 139.200 77.096,139.441 77.099,139.953 76.825 C 140.789 76.378,141.394 75.200,140.787 75.200 C 140.574 75.200,140.400 75.470,140.400 75.800 M172.300 75.632 C 171.442 76.132,171.390 76.667,172.200 76.667 C 172.530 76.667,172.712 76.578,172.603 76.470 C 172.495 76.362,172.607 76.032,172.852 75.737 C 173.379 75.103,173.250 75.078,172.300 75.632 M244.396 76.204 C 243.994 76.689,244.019 76.800,244.527 76.800 C 245.274 76.800,245.762 76.148,245.252 75.832 C 245.053 75.709,244.668 75.877,244.396 76.204 M270.481 76.382 C 271.033 77.266,271.422 77.155,271.062 76.217 C 270.932 75.878,270.638 75.600,270.409 75.600 C 270.146 75.600,270.172 75.887,270.481 76.382 M168.800 76.400 C 168.364 76.682,168.343 76.789,168.724 76.794 C 169.012 76.797,169.144 76.968,169.017 77.172 C 168.891 77.377,168.957 77.650,169.166 77.779 C 169.374 77.908,169.650 77.843,169.779 77.634 C 169.908 77.426,169.811 77.130,169.564 76.978 C 169.246 76.781,169.273 76.600,169.657 76.356 C 169.956 76.167,170.020 76.012,169.800 76.012 C 169.580 76.012,169.130 76.187,168.800 76.400 M126.184 78.427 C 125.715 79.186,126.399 79.373,127.095 78.676 C 127.719 78.053,127.720 78.000,127.109 78.000 C 126.745 78.000,126.329 78.192,126.184 78.427 M271.200 79.327 C 271.200 79.671,271.400 80.076,271.644 80.227 C 271.904 80.388,271.997 81.061,271.869 81.851 C 271.749 82.593,271.793 83.200,271.968 83.200 C 272.517 83.200,272.319 79.631,271.743 79.153 C 271.325 78.806,271.200 78.846,271.200 79.327 M136.400 79.800 C 136.400 80.130,136.130 80.400,135.800 80.400 C 135.470 80.400,135.200 80.586,135.200 80.814 C 135.200 81.096,135.441 81.099,135.953 80.825 C 136.789 80.378,137.394 79.200,136.787 79.200 C 136.574 79.200,136.400 79.470,136.400 79.800 M162.000 80.439 C 161.028 81.610,160.786 82.276,161.102 82.907 C 161.186 83.075,161.432 83.104,161.647 82.971 C 161.898 82.816,161.887 82.546,161.614 82.217 C 161.305 81.845,161.374 81.556,161.870 81.153 C 162.472 80.663,162.517 80.686,162.266 81.357 C 162.021 82.008,162.069 82.041,162.610 81.592 C 163.101 81.184,163.127 81.002,162.730 80.757 C 162.351 80.522,162.407 80.372,162.952 80.163 C 163.400 79.991,163.813 80.097,164.024 80.438 C 164.297 80.880,164.468 80.892,164.863 80.497 C 165.259 80.101,165.222 80.000,164.680 80.000 C 164.306 80.000,164.000 79.820,164.000 79.600 C 164.000 78.824,162.988 79.248,162.000 80.439 M232.000 79.624 C 232.000 79.857,231.839 79.948,231.642 79.826 C 231.445 79.704,231.181 79.874,231.054 80.202 C 230.745 81.009,231.078 80.954,232.291 80.000 C 233.044 79.408,233.138 79.200,232.654 79.200 C 232.294 79.200,232.000 79.391,232.000 79.624 M226.400 80.328 C 225.577 80.701,225.497 82.079,226.308 81.921 C 226.652 81.855,226.964 81.395,227.000 80.900 C 227.037 80.405,227.051 80.013,227.033 80.028 C 227.015 80.044,226.730 80.179,226.400 80.328 M222.354 80.876 C 222.025 81.769,222.135 83.222,222.522 83.093 C 223.081 82.907,223.252 81.279,222.746 80.967 C 222.556 80.849,222.379 80.808,222.354 80.876 M133.622 83.035 C 132.483 84.200,132.354 84.503,132.825 84.912 C 133.134 85.180,133.269 85.250,133.126 85.066 C 132.691 84.508,134.033 83.283,134.846 83.496 C 135.630 83.701,135.850 83.012,135.284 82.123 C 135.074 81.793,134.562 82.074,133.622 83.035 M217.360 82.983 C 217.360 83.646,217.533 83.847,217.960 83.683 C 218.367 83.527,218.405 83.402,218.077 83.292 C 217.812 83.204,217.689 82.979,217.804 82.793 C 217.919 82.607,217.866 82.364,217.687 82.253 C 217.507 82.142,217.360 82.471,217.360 82.983 M122.412 83.184 C 122.088 83.389,121.921 83.654,122.041 83.774 C 122.160 83.894,122.605 83.729,123.029 83.409 C 123.873 82.771,123.360 82.585,122.412 83.184 M211.884 83.907 C 211.069 84.807,211.519 85.602,212.600 85.174 C 213.278 84.905,213.293 84.852,212.700 84.828 C 211.895 84.796,211.758 84.153,212.500 83.888 C 212.775 83.790,212.894 83.594,212.764 83.452 C 212.635 83.311,212.239 83.515,211.884 83.907 M154.683 86.014 C 153.848 86.900,152.996 87.521,152.787 87.392 C 152.579 87.264,152.516 87.438,152.647 87.779 C 152.820 88.228,152.634 88.400,151.976 88.400 C 151.476 88.400,151.185 88.518,151.330 88.663 C 151.475 88.808,151.370 89.210,151.097 89.556 C 150.687 90.076,150.789 90.065,151.682 89.496 C 152.674 88.863,152.793 88.859,153.126 89.454 C 153.346 89.846,153.589 89.941,153.742 89.693 C 153.882 89.468,153.716 89.177,153.375 89.046 C 152.896 88.862,153.218 88.344,154.777 86.785 C 155.890 85.672,156.800 84.680,156.800 84.581 C 156.800 84.057,156.039 84.572,154.683 86.014 M131.357 85.270 C 131.193 85.535,131.271 85.824,131.532 85.911 C 131.792 85.997,131.892 86.251,131.754 86.474 C 131.607 86.712,131.855 86.692,132.352 86.426 C 133.359 85.887,133.483 85.517,132.534 85.881 C 132.106 86.045,131.966 85.979,132.141 85.696 C 132.291 85.453,132.243 85.150,132.034 85.021 C 131.826 84.892,131.521 85.004,131.357 85.270 M156.511 85.752 C 156.023 86.267,155.732 86.799,155.867 86.933 C 156.129 87.196,157.982 85.598,157.993 85.100 C 158.006 84.544,157.406 84.808,156.511 85.752 M207.149 85.477 C 206.776 85.937,206.760 86.057,207.100 85.853 C 207.982 85.323,207.633 86.331,206.711 86.977 C 206.222 87.320,206.044 87.600,206.315 87.600 C 206.926 87.600,208.117 86.249,208.239 85.417 C 208.358 84.604,207.834 84.632,207.149 85.477 M204.607 86.835 C 204.681 87.221,204.485 87.635,204.171 87.756 C 203.426 88.042,203.434 88.667,204.182 88.667 C 204.503 88.667,204.682 88.532,204.580 88.367 C 204.478 88.203,204.605 87.998,204.861 87.913 C 205.544 87.685,205.686 86.133,205.023 86.133 C 204.713 86.133,204.531 86.440,204.607 86.835 M200.051 88.067 C 199.766 88.524,199.745 88.800,199.997 88.800 C 200.218 88.800,200.400 88.620,200.400 88.400 C 200.400 88.180,200.603 88.045,200.850 88.100 C 201.097 88.155,201.373 88.005,201.461 87.767 C 201.734 87.033,200.538 87.288,200.051 88.067 M269.017 87.572 C 268.744 88.014,269.375 88.492,269.744 88.122 C 270.125 87.742,270.054 87.200,269.624 87.200 C 269.417 87.200,269.144 87.368,269.017 87.572 M154.188 88.020 C 153.807 88.635,154.328 89.032,154.842 88.518 C 155.129 88.231,155.136 88.007,154.862 87.839 C 154.639 87.700,154.335 87.782,154.188 88.020 M268.504 89.121 C 268.534 89.521,268.898 89.867,269.322 89.899 C 270.053 89.954,270.055 89.924,269.380 89.178 C 268.514 88.220,268.436 88.215,268.504 89.121 M196.267 89.369 C 196.175 89.608,196.382 90.067,196.726 90.389 C 197.280 90.906,197.322 90.894,197.089 90.287 C 196.944 89.909,196.999 89.600,197.213 89.600 C 197.426 89.600,197.600 89.450,197.600 89.267 C 197.600 88.774,196.462 88.861,196.267 89.369 M278.023 89.428 C 278.280 89.738,278.662 89.885,278.872 89.756 C 279.338 89.468,278.992 89.075,278.166 88.954 C 277.684 88.883,277.654 88.983,278.023 89.428 M151.268 90.840 C 150.944 91.359,150.510 91.562,150.040 91.413 C 149.626 91.281,149.092 91.449,148.799 91.801 C 148.139 92.597,148.530 93.013,149.256 92.287 C 149.559 91.984,149.999 91.800,150.233 91.878 C 150.688 92.029,152.250 90.517,151.949 90.216 C 151.850 90.117,151.544 90.398,151.268 90.840 M280.400 90.636 C 280.400 90.972,280.565 91.145,280.766 91.021 C 280.967 90.897,281.223 91.021,281.334 91.298 C 281.463 91.618,281.548 91.562,281.568 91.143 C 281.586 90.781,281.330 90.382,281.000 90.255 C 280.628 90.113,280.400 90.257,280.400 90.636 M191.200 91.929 C 190.650 92.298,190.139 92.950,190.064 93.378 C 189.947 94.053,190.015 94.085,190.574 93.621 C 190.929 93.327,191.133 92.999,191.027 92.893 C 190.921 92.787,191.231 92.369,191.717 91.964 C 192.810 91.051,192.537 91.033,191.200 91.929 M115.084 92.600 C 114.927 93.040,114.681 93.667,114.535 93.993 C 114.347 94.416,114.470 94.387,114.965 93.892 C 115.346 93.511,115.593 92.884,115.513 92.499 C 115.384 91.881,115.335 91.892,115.084 92.600 M149.500 92.832 C 148.748 93.270,148.552 94.000,149.186 94.000 C 149.398 94.000,149.765 93.640,150.000 93.200 C 150.487 92.290,150.462 92.272,149.500 92.832 M125.569 93.700 C 125.227 94.820,125.318 95.200,125.828 94.777 C 126.138 94.520,126.293 94.150,126.172 93.955 C 125.965 93.620,125.636 93.481,125.569 93.700 M123.333 97.000 C 123.333 97.342,123.497 97.568,123.697 97.501 C 123.897 97.434,124.060 97.209,124.060 97.000 C 124.060 96.791,123.897 96.566,123.697 96.499 C 123.497 96.432,123.333 96.658,123.333 97.000 M143.800 98.400 C 143.368 98.877,143.268 99.200,143.551 99.200 C 143.812 99.200,144.128 98.931,144.254 98.602 C 144.381 98.274,144.673 98.121,144.904 98.264 C 145.149 98.416,145.205 98.331,145.038 98.062 C 144.666 97.459,144.647 97.464,143.800 98.400 M181.068 98.792 C 180.671 99.464,180.208 99.929,180.040 99.825 C 179.871 99.720,179.733 99.909,179.733 100.243 C 179.733 100.658,180.109 100.476,180.915 99.670 C 181.565 99.020,182.027 98.282,181.943 98.029 C 181.859 97.777,181.465 98.120,181.068 98.792 M111.600 98.272 C 111.600 98.495,111.239 99.094,110.797 99.603 C 109.980 100.545,109.981 101.106,110.798 100.601 C 111.346 100.262,112.105 98.372,111.811 98.078 C 111.695 97.962,111.600 98.049,111.600 98.272 M257.653 98.537 C 257.271 98.996,257.374 99.100,258.209 99.100 C 258.772 99.100,259.170 98.909,259.092 98.675 C 258.865 97.994,258.159 97.927,257.653 98.537 M287.823 98.567 C 288.661 99.180,289.040 99.113,288.616 98.427 C 288.471 98.192,288.059 98.000,287.700 98.000 C 287.154 98.000,287.174 98.093,287.823 98.567 M122.287 99.805 C 121.707 100.602,121.689 100.741,122.187 100.550 C 122.524 100.420,122.800 100.143,122.800 99.934 C 122.800 99.724,122.978 99.663,123.195 99.797 C 123.422 99.937,123.489 99.777,123.353 99.421 C 123.060 98.659,123.143 98.629,122.287 99.805 M255.700 99.798 C 255.042 100.546,255.067 100.826,255.769 100.557 C 256.370 100.326,256.979 99.189,256.487 99.215 C 256.329 99.224,255.975 99.486,255.700 99.798 M121.756 101.213 C 121.291 101.389,120.792 101.844,120.646 102.223 C 120.427 102.795,120.483 102.829,120.973 102.422 C 121.299 102.152,121.781 102.064,122.044 102.227 C 122.334 102.406,122.419 102.354,122.259 102.096 C 122.114 101.861,122.221 101.588,122.498 101.489 C 122.774 101.390,122.910 101.216,122.800 101.101 C 122.690 100.987,122.220 101.037,121.756 101.213 M141.230 102.164 C 140.972 102.475,140.905 102.802,141.081 102.891 C 141.751 103.230,142.939 102.977,143.113 102.458 C 143.247 102.059,143.058 101.991,142.397 102.201 C 141.786 102.395,141.587 102.344,141.774 102.043 C 142.164 101.410,141.785 101.495,141.230 102.164 M109.169 102.100 C 108.825 103.224,108.917 103.601,109.432 103.173 C 110.090 102.627,110.180 102.000,109.600 102.000 C 109.380 102.000,109.186 102.045,109.169 102.100 M176.007 102.714 C 175.143 103.413,175.142 103.429,175.943 103.429 C 176.393 103.429,176.682 103.349,176.584 103.251 C 176.487 103.153,176.607 102.832,176.852 102.537 C 177.481 101.780,177.049 101.870,176.007 102.714 M261.000 102.800 C 259.995 103.466,259.931 103.595,260.604 103.597 C 261.046 103.599,261.632 103.240,261.907 102.800 C 262.522 101.815,262.488 101.815,261.000 102.800 M173.000 103.600 C 172.766 103.979,173.036 104.152,173.700 104.047 C 174.214 103.966,174.029 104.678,173.400 105.200 C 173.070 105.474,172.800 105.899,172.800 106.145 C 172.800 106.391,173.295 106.058,173.900 105.406 C 174.952 104.271,175.131 103.686,174.360 103.900 C 174.162 103.955,174.000 103.820,174.000 103.600 C 174.000 103.380,173.831 103.200,173.624 103.200 C 173.417 103.200,173.136 103.380,173.000 103.600 M248.562 104.093 C 248.143 104.584,248.070 104.780,248.400 104.527 C 248.730 104.275,249.176 104.066,249.390 104.064 C 249.605 104.062,249.845 103.867,249.923 103.630 C 250.172 102.885,249.356 103.163,248.562 104.093 M139.862 104.731 C 139.077 105.599,139.003 106.132,139.700 105.900 C 139.975 105.808,140.203 105.568,140.206 105.367 C 140.209 105.165,140.355 104.775,140.530 104.500 C 140.998 103.762,140.621 103.893,139.862 104.731 M141.200 104.600 C 140.917 104.941,140.776 105.309,140.886 105.419 C 140.996 105.529,141.317 105.341,141.600 105.000 C 141.883 104.659,142.024 104.291,141.914 104.181 C 141.804 104.071,141.483 104.259,141.200 104.600 M288.811 104.587 C 288.054 105.498,288.503 106.240,289.318 105.425 C 290.054 104.689,290.214 104.000,289.649 104.000 C 289.456 104.000,289.079 104.264,288.811 104.587 M270.100 106.500 C 270.192 106.775,270.432 107.003,270.633 107.006 C 271.312 107.017,272.015 107.652,271.777 108.038 C 271.647 108.248,271.689 108.394,271.870 108.363 C 272.761 108.208,272.878 108.460,272.176 109.022 C 271.438 109.614,271.446 109.622,272.343 109.185 L 273.285 108.726 271.964 107.363 C 270.620 105.976,269.799 105.596,270.100 106.500 M119.878 106.656 C 119.579 106.955,119.906 107.600,120.357 107.600 C 120.527 107.600,120.667 107.330,120.667 107.000 C 120.667 106.373,120.314 106.219,119.878 106.656 M287.200 107.000 C 287.200 107.110,287.560 107.560,288.000 108.000 C 288.440 108.440,288.800 108.633,288.800 108.429 C 288.800 108.224,288.517 107.774,288.171 107.429 C 287.531 106.788,287.200 106.642,287.200 107.000 M263.322 107.617 C 263.436 108.032,261.267 110.400,260.773 110.400 C 260.542 110.400,260.476 110.599,260.627 110.843 C 260.798 111.121,261.551 110.634,262.637 109.543 C 264.529 107.644,264.696 107.333,263.822 107.333 C 263.504 107.333,263.279 107.461,263.322 107.617 M254.656 107.878 C 254.219 108.314,254.373 108.667,255.000 108.667 C 255.330 108.667,255.600 108.527,255.600 108.357 C 255.600 107.906,254.955 107.579,254.656 107.878 M227.078 109.326 C 227.201 109.526,226.922 109.566,226.450 109.416 C 225.946 109.256,225.600 109.320,225.600 109.573 C 225.600 110.154,226.749 110.080,228.200 109.407 L 229.400 108.850 228.128 108.908 C 227.428 108.940,226.955 109.128,227.078 109.326 M117.252 110.137 C 117.007 110.432,116.906 110.772,117.027 110.893 C 117.340 111.207,118.800 110.773,118.800 110.366 C 118.800 110.178,118.500 110.140,118.134 110.281 C 117.687 110.452,117.564 110.383,117.758 110.068 C 118.153 109.428,117.801 109.476,117.252 110.137 M136.782 110.834 C 136.167 111.982,136.432 112.015,137.486 110.920 C 138.112 110.269,138.204 110.000,137.800 110.000 C 137.485 110.000,137.027 110.375,136.782 110.834 M270.629 110.629 C 269.729 111.528,269.833 112.117,270.800 111.600 C 271.240 111.365,271.600 110.908,271.600 110.586 C 271.600 109.840,271.409 109.848,270.629 110.629 M105.384 111.220 C 104.716 112.291,104.774 112.997,105.473 112.298 C 105.814 111.957,106.015 111.445,105.920 111.159 C 105.784 110.752,105.668 110.766,105.384 111.220 M215.900 112.033 C 215.064 112.949,215.669 113.074,216.571 112.171 C 216.917 111.826,217.200 111.466,217.200 111.371 C 217.200 110.986,216.557 111.313,215.900 112.033 M135.837 113.352 C 135.085 114.115,135.087 114.123,135.937 113.901 C 136.412 113.776,136.800 113.860,136.800 114.086 C 136.800 114.330,137.045 114.295,137.400 114.000 C 137.730 113.726,138.000 113.322,138.000 113.102 C 138.000 112.868,137.764 112.898,137.433 113.172 C 136.994 113.537,136.837 113.523,136.733 113.110 C 136.635 112.717,136.400 112.780,135.837 113.352 M213.144 113.187 C 212.464 113.754,212.371 113.977,212.811 113.987 C 213.147 113.994,213.730 113.640,214.107 113.200 C 214.987 112.173,214.372 112.164,213.144 113.187 M116.248 113.419 C 116.108 113.785,116.249 113.880,116.686 113.712 C 117.166 113.528,117.243 113.610,116.989 114.032 C 116.695 114.519,116.744 114.521,117.333 114.043 C 118.055 113.457,117.950 113.098,117.016 112.961 C 116.708 112.916,116.362 113.122,116.248 113.419 M246.900 114.288 C 246.625 114.386,246.400 114.735,246.400 115.062 C 246.400 115.567,246.498 115.559,247.048 115.010 C 247.752 114.306,247.690 114.006,246.900 114.288 M266.700 115.283 C 265.966 116.035,266.214 116.233,267.149 115.640 C 267.451 115.449,267.631 115.129,267.549 114.930 C 267.467 114.730,267.085 114.889,266.700 115.283 M276.800 114.702 C 276.800 114.922,277.070 115.326,277.400 115.600 C 277.735 115.878,278.000 115.921,278.000 115.698 C 278.000 115.478,277.730 115.074,277.400 114.800 C 277.065 114.522,276.800 114.479,276.800 114.702 M209.144 115.574 C 208.343 116.230,208.313 116.332,208.945 116.244 C 209.355 116.187,209.859 115.838,210.065 115.470 C 210.554 114.596,210.304 114.624,209.144 115.574 M114.430 116.964 C 114.109 117.350,114.094 117.611,114.381 117.788 C 114.611 117.931,114.814 117.992,114.831 117.924 C 115.219 116.355,115.124 116.128,114.430 116.964 M252.927 116.660 C 253.070 116.804,252.875 117.158,252.494 117.448 C 252.112 117.737,252.012 117.980,252.271 117.987 C 252.714 117.999,254.000 116.946,254.000 116.571 C 254.000 116.477,253.700 116.400,253.333 116.400 C 252.967 116.400,252.784 116.517,252.927 116.660 M273.396 116.807 C 273.258 117.030,272.977 117.109,272.772 116.983 C 272.568 116.856,272.400 116.943,272.400 117.176 C 272.400 117.823,273.483 117.681,273.745 117.000 C 274.006 116.320,273.776 116.192,273.396 116.807 M115.797 117.130 C 115.905 117.238,115.789 117.572,115.540 117.873 C 115.290 118.173,115.157 118.487,115.243 118.570 C 115.329 118.654,115.701 118.319,116.068 117.827 C 116.611 117.102,116.630 116.933,116.168 116.933 C 115.856 116.933,115.688 117.022,115.797 117.130 M134.434 117.700 C 134.099 118.585,134.196 119.138,134.613 118.721 C 134.902 118.431,135.201 116.800,134.964 116.800 C 134.860 116.800,134.621 117.205,134.434 117.700 M163.875 118.014 C 162.944 119.344,163.028 119.772,164.025 118.775 C 164.479 118.321,164.783 117.748,164.700 117.500 C 164.618 117.253,164.246 117.484,163.875 118.014 M278.000 117.987 C 278.000 118.126,278.223 118.463,278.497 118.737 C 278.892 119.132,278.872 119.318,278.397 119.647 C 277.869 120.013,277.869 120.042,278.400 119.898 C 279.157 119.691,279.283 117.733,278.539 117.733 C 278.243 117.733,278.000 117.847,278.000 117.987 M161.600 120.357 C 161.600 120.627,161.450 120.755,161.267 120.641 C 161.083 120.528,160.933 120.703,160.933 121.031 C 160.933 121.409,161.073 121.487,161.315 121.245 C 161.526 121.034,161.991 120.955,162.349 121.069 C 162.738 121.192,162.839 121.138,162.600 120.933 C 162.380 120.745,162.065 120.428,161.900 120.229 C 161.733 120.027,161.600 120.084,161.600 120.357 M269.151 121.069 C 267.956 122.457,267.852 123.457,269.025 122.284 C 269.604 121.705,270.010 121.031,269.928 120.785 C 269.838 120.514,269.532 120.626,269.151 121.069 M133.660 121.817 C 132.674 122.952,132.455 123.984,133.361 123.232 C 133.670 122.976,134.000 122.909,134.096 123.083 C 134.191 123.257,134.205 123.152,134.127 122.849 C 134.050 122.546,134.286 122.079,134.654 121.810 C 135.049 121.521,135.158 121.221,134.921 121.075 C 134.701 120.939,134.133 121.273,133.660 121.817 M237.998 121.690 C 237.449 122.139,237.041 122.651,237.092 122.829 C 237.142 123.006,236.844 123.259,236.429 123.391 C 236.014 123.523,235.573 123.894,235.450 124.215 C 235.080 125.178,235.605 124.890,237.291 123.203 C 238.169 122.325,239.048 121.706,239.244 121.827 C 239.440 121.948,239.600 121.867,239.600 121.647 C 239.600 120.868,238.983 120.884,237.998 121.690 M113.569 121.700 C 113.242 122.769,113.365 123.082,114.043 122.905 C 114.459 122.796,114.800 122.553,114.800 122.366 C 114.800 122.178,114.500 122.140,114.134 122.281 C 113.687 122.452,113.564 122.383,113.758 122.068 C 113.917 121.811,113.947 121.600,113.824 121.600 C 113.701 121.600,113.586 121.645,113.569 121.700 M259.777 123.367 C 259.350 123.679,259.136 124.069,259.301 124.234 C 259.465 124.399,259.600 124.323,259.600 124.067 C 259.600 123.810,259.870 123.600,260.200 123.600 C 260.530 123.600,260.800 123.420,260.800 123.200 C 260.800 122.676,260.700 122.693,259.777 123.367 M199.312 125.172 C 199.272 125.710,199.438 125.884,199.843 125.728 C 200.468 125.488,200.417 124.739,199.760 124.520 C 199.546 124.449,199.344 124.742,199.312 125.172 M230.502 126.815 C 230.772 127.247,231.123 127.600,231.284 127.600 C 231.767 127.600,231.180 126.478,230.575 126.246 C 230.111 126.068,230.098 126.168,230.502 126.815 M264.400 126.525 C 264.400 126.814,263.860 127.568,263.200 128.200 C 261.998 129.351,261.622 130.193,262.430 129.923 C 262.666 129.845,262.801 129.680,262.730 129.557 C 262.659 129.434,263.185 128.667,263.900 127.853 C 265.295 126.264,265.423 126.000,264.800 126.000 C 264.580 126.000,264.400 126.236,264.400 126.525 M133.154 126.500 C 133.129 126.555,133.049 127.140,132.976 127.800 C 132.840 129.030,133.640 128.205,133.849 126.900 C 133.914 126.493,133.315 126.148,133.154 126.500 M238.323 129.009 C 237.291 129.994,236.506 130.800,236.578 130.800 C 236.946 130.800,238.830 129.665,238.723 129.507 C 238.519 129.203,239.668 127.995,239.979 128.187 C 240.137 128.285,240.267 128.103,240.267 127.782 C 240.267 127.462,240.252 127.204,240.233 127.209 C 240.215 127.214,239.355 128.024,238.323 129.009 M158.832 128.124 C 158.814 128.522,158.650 128.755,158.467 128.641 C 158.283 128.528,158.133 128.697,158.133 129.018 C 158.133 129.338,158.289 129.600,158.479 129.600 C 158.952 129.600,159.322 128.542,159.069 127.913 C 158.943 127.600,158.851 127.682,158.832 128.124 M255.705 127.967 C 255.738 128.095,255.188 128.804,254.483 129.542 C 253.140 130.947,252.881 131.600,253.667 131.600 C 253.923 131.600,254.009 131.476,253.858 131.324 C 253.706 131.173,254.314 130.303,255.209 129.391 C 256.197 128.385,256.602 127.733,256.240 127.733 C 255.912 127.733,255.672 127.838,255.705 127.967 M299.601 128.079 C 299.821 128.343,300.003 128.929,300.006 129.380 C 300.009 129.831,300.189 130.470,300.406 130.800 C 300.683 131.223,300.725 130.988,300.549 130.000 C 300.411 129.230,300.052 128.374,299.750 128.099 C 299.407 127.784,299.352 127.777,299.601 128.079 M100.122 128.601 C 99.895 129.040,99.592 130.168,99.449 131.106 L 99.189 132.811 99.994 132.006 C 100.844 131.156,101.075 130.583,100.400 131.000 C 99.853 131.338,99.892 129.868,100.445 129.315 C 100.690 129.070,100.810 128.630,100.712 128.336 C 100.587 127.960,100.412 128.039,100.122 128.601 M215.783 130.372 C 215.909 130.577,215.830 130.858,215.607 130.996 C 215.092 131.314,215.074 133.075,215.583 133.389 C 215.793 133.519,215.873 133.867,215.760 134.161 C 215.647 134.456,215.860 134.814,216.234 134.958 C 216.804 135.176,216.832 135.121,216.408 134.609 C 215.998 134.116,216.002 134.000,216.427 134.000 C 216.746 134.000,216.647 133.772,216.176 133.420 C 215.439 132.869,215.433 132.780,216.064 131.650 C 216.705 130.502,216.658 130.000,215.910 130.000 C 215.713 130.000,215.656 130.168,215.783 130.372 M221.646 131.019 C 221.121 131.573,220.786 132.119,220.901 132.235 C 221.127 132.461,223.200 130.675,223.200 130.254 C 223.200 129.734,222.572 130.044,221.646 131.019 M260.325 131.600 C 259.746 132.260,259.432 132.800,259.627 132.800 C 259.822 132.800,260.275 132.352,260.635 131.803 C 260.994 131.255,261.476 130.923,261.706 131.065 C 261.949 131.216,262.004 131.131,261.838 130.862 C 261.464 130.256,261.534 130.222,260.325 131.600 M157.983 133.500 C 156.908 134.732,156.489 135.956,157.403 135.197 C 157.825 134.847,157.980 134.951,158.118 135.675 C 158.216 136.184,158.242 136.026,158.176 135.324 C 158.111 134.622,158.254 133.982,158.494 133.902 C 158.850 133.783,159.350 132.400,159.037 132.400 C 158.986 132.400,158.512 132.895,157.983 133.500 M270.188 133.220 C 269.807 133.835,270.328 134.232,270.842 133.718 C 271.129 133.431,271.136 133.207,270.862 133.039 C 270.639 132.900,270.335 132.982,270.188 133.220 M237.967 134.338 C 238.544 135.417,239.154 135.770,239.035 134.957 C 238.983 134.601,238.623 134.132,238.235 133.915 C 237.616 133.569,237.583 133.621,237.967 134.338 M230.857 135.556 C 230.479 135.796,230.449 135.983,230.757 136.174 C 231.001 136.324,231.200 136.225,231.200 135.954 C 231.200 135.680,231.640 135.873,232.188 136.388 C 232.731 136.899,233.063 137.498,232.926 137.720 C 232.778 137.959,232.878 137.999,233.171 137.818 C 233.541 137.589,231.875 135.097,231.425 135.206 C 231.411 135.209,231.156 135.367,230.857 135.556 M256.400 135.704 C 256.400 136.055,256.085 136.424,255.700 136.524 C 255.044 136.696,255.045 136.710,255.713 136.754 C 256.436 136.801,257.106 135.773,256.649 135.316 C 256.512 135.179,256.400 135.353,256.400 135.704 M248.674 136.440 C 248.534 136.975,248.276 137.171,247.965 136.978 C 247.652 136.785,247.579 136.843,247.762 137.139 C 247.936 137.420,247.647 137.754,247.024 137.991 C 246.056 138.359,245.590 139.200,246.353 139.200 C 246.709 139.200,249.600 136.171,249.600 135.799 C 249.600 135.212,248.861 135.723,248.674 136.440 M130.000 136.695 C 130.000 137.586,131.314 138.052,131.929 137.379 C 132.560 136.687,132.558 136.675,131.900 137.171 C 131.280 137.638,131.050 137.517,131.130 136.767 C 131.144 136.638,130.896 136.533,130.578 136.533 C 130.260 136.533,130.000 136.606,130.000 136.695 M216.973 137.100 C 217.030 137.485,217.419 137.866,217.838 137.946 C 218.587 138.091,218.587 138.079,217.838 137.246 C 216.914 136.220,216.843 136.208,216.973 137.100 M228.753 136.700 C 228.727 136.865,228.727 137.135,228.753 137.300 C 228.779 137.465,228.590 137.600,228.333 137.600 C 228.077 137.600,227.982 137.716,228.124 137.857 C 228.421 138.155,229.600 137.272,229.600 136.751 C 229.600 136.324,228.819 136.277,228.753 136.700 M98.188 137.220 C 97.807 137.835,98.328 138.232,98.842 137.718 C 99.129 137.431,99.136 137.207,98.862 137.039 C 98.639 136.900,98.335 136.982,98.188 137.220 M240.827 137.432 C 241.394 138.116,242.129 138.186,241.912 137.535 C 241.826 137.279,241.441 137.024,241.056 136.967 C 240.493 136.884,240.448 136.976,240.827 137.432 M226.184 138.427 C 226.039 138.661,226.016 138.949,226.133 139.067 C 226.420 139.353,227.200 138.848,227.200 138.376 C 227.200 137.865,226.509 137.899,226.184 138.427 M98.101 140.600 C 98.105 141.480,98.187 141.793,98.283 141.295 C 98.379 140.798,98.375 140.078,98.275 139.695 C 98.175 139.313,98.096 139.720,98.101 140.600 M253.056 139.478 C 252.619 139.914,252.773 140.267,253.400 140.267 C 253.730 140.267,254.000 140.127,254.000 139.957 C 254.000 139.506,253.355 139.179,253.056 139.478 M243.863 140.470 C 244.487 141.159,244.577 141.164,245.267 140.539 C 245.673 140.172,245.900 139.767,245.772 139.639 C 245.645 139.511,245.362 139.724,245.145 140.112 C 244.928 140.500,244.579 140.711,244.369 140.581 C 244.159 140.451,244.072 140.207,244.176 140.039 C 244.280 139.871,244.102 139.733,243.781 139.733 C 243.299 139.733,243.313 139.862,243.863 140.470 M269.169 139.900 C 269.153 140.065,269.076 140.531,268.999 140.937 C 268.923 141.342,268.982 141.552,269.130 141.403 C 269.279 141.255,269.403 141.013,269.406 140.867 C 269.409 140.720,269.555 140.375,269.730 140.100 C 269.911 139.815,269.865 139.600,269.624 139.600 C 269.391 139.600,269.186 139.735,269.169 139.900 M238.219 142.770 C 238.066 143.017,238.110 143.170,238.317 143.110 C 238.525 143.049,239.063 143.450,239.513 144.000 C 239.963 144.550,240.401 144.910,240.486 144.800 C 240.571 144.690,240.159 144.087,239.569 143.460 C 238.869 142.715,238.401 142.476,238.219 142.770 M157.082 143.900 C 156.847 144.325,156.712 149.022,156.940 148.791 C 157.044 148.686,157.175 147.700,157.232 146.600 C 157.288 145.500,157.506 144.375,157.716 144.100 C 157.965 143.774,157.950 143.600,157.673 143.600 C 157.439 143.600,157.173 143.735,157.082 143.900 M192.520 146.400 C 192.520 147.610,192.595 148.105,192.687 147.500 C 192.778 146.895,192.778 145.905,192.687 145.300 C 192.595 144.695,192.520 145.190,192.520 146.400 M248.800 144.793 C 248.287 145.119,248.330 145.304,249.100 146.076 C 249.595 146.572,250.000 146.758,250.000 146.489 C 250.000 146.220,249.799 146.000,249.553 146.000 C 249.304 146.000,249.199 145.647,249.316 145.200 C 249.431 144.760,249.497 144.403,249.463 144.406 C 249.428 144.409,249.130 144.584,248.800 144.793 M239.600 146.272 C 239.600 146.495,239.239 147.094,238.797 147.603 C 237.980 148.545,237.981 149.106,238.798 148.601 C 239.346 148.262,240.105 146.372,239.811 146.078 C 239.695 145.962,239.600 146.049,239.600 146.272 M237.169 150.100 C 236.825 151.224,236.917 151.601,237.432 151.173 C 238.090 150.627,238.180 150.000,237.600 150.000 C 237.380 150.000,237.186 150.045,237.169 150.100 M244.875 150.425 C 244.971 150.714,245.286 151.029,245.575 151.125 C 245.875 151.225,246.025 151.075,245.925 150.775 C 245.829 150.486,245.514 150.171,245.225 150.075 C 244.925 149.975,244.775 150.125,244.875 150.425 M192.931 151.505 C 193.077 152.612,194.000 153.691,194.000 152.756 C 194.000 152.425,193.732 151.804,193.405 151.376 C 192.827 150.622,192.814 150.626,192.931 151.505 M194.000 157.090 C 194.000 157.286,194.247 157.785,194.549 158.198 C 195.070 158.911,195.095 158.901,195.049 158.007 C 195.004 157.147,194.000 156.269,194.000 157.090 M266.386 157.817 C 265.969 158.319,265.971 158.524,266.396 158.917 C 266.812 159.302,266.872 159.268,266.690 158.749 C 266.565 158.391,266.664 157.896,266.911 157.649 C 267.158 157.402,267.256 157.200,267.129 157.200 C 267.002 157.200,266.668 157.478,266.386 157.817 M248.196 159.207 C 248.058 159.430,247.749 159.492,247.511 159.345 C 247.260 159.190,247.191 159.261,247.347 159.514 C 247.495 159.754,247.298 160.136,246.908 160.363 C 246.007 160.888,246.608 160.931,247.579 160.411 C 247.979 160.197,248.411 159.747,248.540 159.411 C 248.805 158.722,248.579 158.587,248.196 159.207 M242.905 160.687 C 243.514 160.779,244.414 160.777,244.905 160.682 C 245.397 160.587,244.900 160.511,243.800 160.514 C 242.700 160.517,242.297 160.595,242.905 160.687 M98.000 163.327 C 98.000 164.074,98.652 164.562,98.968 164.052 C 99.091 163.853,98.923 163.468,98.596 163.196 C 98.111 162.794,98.000 162.819,98.000 163.327 M301.081 164.933 C 300.968 165.227,301.129 165.467,301.438 165.467 C 301.747 165.467,302.000 165.227,302.000 164.933 C 302.000 164.640,301.839 164.400,301.643 164.400 C 301.446 164.400,301.193 164.640,301.081 164.933 M99.200 169.000 C 99.200 169.330,99.355 169.600,99.545 169.600 C 99.734 169.600,99.810 170.016,99.712 170.524 C 99.601 171.109,99.805 171.653,100.268 172.005 C 100.895 172.482,100.928 172.481,100.500 172.001 C 99.907 171.335,99.824 169.844,100.400 170.200 C 101.074 170.616,100.845 170.045,100.000 169.200 C 99.378 168.578,99.200 168.533,99.200 169.000 M260.191 169.106 C 259.474 169.621,258.355 171.592,258.899 171.382 C 259.174 171.275,259.707 170.650,260.081 169.994 C 260.812 168.714,260.819 168.655,260.191 169.106 M300.195 171.053 C 300.061 171.684,299.769 172.535,299.545 172.944 C 299.236 173.510,299.265 173.645,299.668 173.511 C 299.959 173.414,300.314 172.629,300.456 171.767 C 300.759 169.936,300.553 169.371,300.195 171.053 M255.033 174.657 C 254.652 175.650,255.072 175.786,255.582 174.834 C 255.827 174.375,255.861 174.000,255.657 174.000 C 255.453 174.000,255.172 174.296,255.033 174.657 M253.377 175.767 C 252.950 176.079,252.707 176.440,252.836 176.570 C 252.966 176.699,253.398 176.444,253.798 176.002 C 254.648 175.063,254.473 174.966,253.377 175.767 M209.996 178.596 C 210.268 178.923,210.653 179.091,210.852 178.968 C 211.362 178.652,210.874 178.000,210.127 178.000 C 209.619 178.000,209.594 178.111,209.996 178.596 M212.406 179.420 C 212.399 179.929,213.224 180.800,213.713 180.800 C 213.908 180.800,214.002 180.607,213.923 180.370 C 213.845 180.134,213.625 179.969,213.435 180.004 C 213.245 180.039,212.937 179.828,212.751 179.534 C 212.565 179.240,212.409 179.189,212.406 179.420 M219.260 182.380 C 219.348 182.644,219.550 182.846,219.710 182.830 C 220.188 182.781,220.096 182.232,219.580 182.060 C 219.316 181.972,219.172 182.116,219.260 182.380 M240.673 182.555 C 240.524 182.943,240.689 183.049,241.225 182.909 C 241.646 182.799,241.892 182.550,241.772 182.355 C 241.446 181.828,240.914 181.925,240.673 182.555 M222.908 183.637 C 223.298 183.864,223.531 184.188,223.426 184.358 C 223.321 184.528,223.497 184.667,223.818 184.667 C 224.642 184.667,224.540 184.103,223.626 183.614 C 222.622 183.077,221.981 183.097,222.908 183.637 M294.480 189.280 C 293.839 189.921,293.870 190.425,294.533 190.170 C 294.827 190.058,295.067 189.703,295.067 189.383 C 295.067 188.680,295.078 188.682,294.480 189.280 M108.967 197.056 C 109.024 197.441,109.279 197.826,109.535 197.912 C 110.186 198.129,110.116 197.394,109.432 196.827 C 108.976 196.448,108.884 196.493,108.967 197.056 M110.243 199.769 C 110.542 200.548,111.600 200.908,111.600 200.230 C 111.600 199.931,111.315 199.576,110.967 199.443 C 110.069 199.098,109.998 199.130,110.243 199.769 M285.029 205.829 C 284.605 206.138,284.336 206.469,284.430 206.563 C 284.524 206.657,284.948 206.481,285.371 206.171 C 285.795 205.862,286.064 205.531,285.970 205.437 C 285.876 205.343,285.452 205.519,285.029 205.829 M115.438 207.355 C 115.579 207.722,116.038 208.206,116.458 208.431 C 116.879 208.656,117.122 209.002,117.000 209.200 C 116.878 209.398,117.156 209.763,117.619 210.010 C 118.606 210.538,118.171 209.372,117.026 208.422 C 116.687 208.140,116.526 207.705,116.669 207.455 C 116.811 207.205,116.781 207.133,116.601 207.297 C 116.421 207.460,116.028 207.389,115.728 207.140 C 115.295 206.781,115.235 206.826,115.438 207.355 M283.700 207.798 C 283.042 208.546,283.067 208.826,283.769 208.557 C 284.370 208.326,284.979 207.189,284.487 207.215 C 284.329 207.224,283.975 207.486,283.700 207.798 M119.878 212.656 C 119.579 212.955,119.906 213.600,120.357 213.600 C 120.527 213.600,120.667 213.330,120.667 213.000 C 120.667 212.373,120.314 212.219,119.878 212.656 M279.184 213.630 C 278.776 214.392,278.809 214.423,279.581 214.010 C 280.044 213.763,280.317 213.389,280.188 213.180 C 279.846 212.628,279.680 212.703,279.184 213.630 M277.400 215.762 C 276.960 216.283,276.542 216.950,276.470 217.243 C 276.261 218.105,277.892 216.458,278.123 215.574 C 278.375 214.610,278.372 214.611,277.400 215.762 M127.600 222.400 C 127.835 222.840,128.230 223.200,128.476 223.200 C 128.722 223.200,128.598 222.840,128.200 222.400 C 127.802 221.960,127.408 221.600,127.324 221.600 C 127.240 221.600,127.365 221.960,127.600 222.400 M270.399 224.100 C 269.810 224.904,269.713 225.184,270.145 224.833 C 270.801 224.300,271.793 222.800,271.489 222.800 C 271.413 222.800,270.922 223.385,270.399 224.100 M266.232 229.060 C 265.893 229.944,266.177 230.150,266.762 229.445 C 267.046 229.103,267.086 228.777,266.861 228.638 C 266.654 228.510,266.371 228.699,266.232 229.060 M135.714 231.742 C 135.926 232.379,136.667 232.485,136.667 231.878 C 136.667 231.578,136.422 231.333,136.122 231.333 C 135.823 231.333,135.639 231.517,135.714 231.742 M138.400 235.551 C 138.400 235.730,138.756 236.198,139.191 236.591 C 139.625 236.985,139.885 237.463,139.767 237.653 C 139.649 237.844,139.733 238.000,139.953 238.000 C 140.663 238.000,140.871 237.202,140.225 236.954 C 139.881 236.822,139.600 236.483,139.600 236.200 C 139.600 235.917,139.330 235.582,139.000 235.455 C 138.670 235.329,138.400 235.372,138.400 235.551 M261.017 235.572 C 260.744 236.014,261.375 236.492,261.744 236.122 C 262.125 235.742,262.054 235.200,261.624 235.200 C 261.417 235.200,261.144 235.368,261.017 235.572 M142.243 240.969 C 142.364 241.282,142.715 241.635,143.025 241.754 C 143.489 241.932,143.502 241.832,143.098 241.185 C 142.532 240.280,141.919 240.125,142.243 240.969 M254.239 246.338 C 254.100 246.561,254.182 246.865,254.420 247.012 C 255.035 247.393,255.432 246.872,254.918 246.358 C 254.631 246.071,254.407 246.064,254.239 246.338 M151.301 268.200 C 151.305 269.080,151.387 269.393,151.483 268.895 C 151.579 268.398,151.575 267.678,151.475 267.295 C 151.375 266.913,151.296 267.320,151.301 268.200 M157.676 287.847 C 158.032 288.203,158.523 288.371,158.768 288.220 C 159.419 287.817,158.888 287.200,157.891 287.200 C 157.096 287.200,157.079 287.251,157.676 287.847 M240.398 288.082 C 239.738 288.617,239.670 288.800,240.132 288.800 C 240.473 288.800,240.866 288.617,241.004 288.393 C 241.142 288.170,241.402 288.078,241.582 288.189 C 241.762 288.300,242.123 288.133,242.385 287.818 C 243.096 286.961,241.525 287.169,240.398 288.082 M158.162 290.893 C 157.425 291.757,157.425 291.767,158.156 291.198 C 158.571 290.874,159.381 290.661,159.956 290.723 C 160.777 290.812,160.872 290.748,160.400 290.424 C 159.498 289.805,159.002 289.909,158.162 290.893 M240.400 290.361 C 240.400 290.559,240.968 290.920,241.663 291.162 C 242.910 291.597,242.917 291.592,242.201 290.801 C 241.456 289.978,240.400 289.720,240.400 290.361 M156.300 291.632 C 155.442 292.132,155.390 292.667,156.200 292.667 C 156.530 292.667,156.712 292.578,156.603 292.470 C 156.495 292.362,156.607 292.032,156.852 291.737 C 157.379 291.103,157.250 291.078,156.300 291.632 M154.355 293.689 C 153.897 294.548,153.913 294.566,154.635 294.013 C 155.056 293.690,155.457 293.393,155.527 293.353 C 155.596 293.313,155.470 293.167,155.247 293.029 C 155.023 292.891,154.622 293.188,154.355 293.689 M246.106 294.742 C 246.139 295.183,246.293 295.466,246.449 295.370 C 246.604 295.274,246.823 295.421,246.934 295.698 C 247.064 296.020,247.148 295.967,247.168 295.549 C 247.186 295.191,246.940 294.682,246.623 294.419 C 246.151 294.027,246.056 294.086,246.106 294.742 M153.384 295.220 C 152.716 296.291,152.774 296.997,153.473 296.298 C 153.814 295.957,154.015 295.445,153.920 295.159 C 153.784 294.752,153.668 294.766,153.384 295.220 M154.660 313.841 C 153.924 314.851,153.924 314.854,154.760 314.332 C 155.222 314.044,155.600 313.581,155.600 313.304 C 155.600 312.619,155.514 312.668,154.660 313.841 M245.027 313.630 C 245.881 314.574,246.098 314.599,245.929 313.738 C 245.858 313.374,245.469 313.027,245.065 312.968 C 244.366 312.866,244.364 312.897,245.027 313.630 M246.457 324.057 C 246.175 324.509,246.032 324.966,246.140 325.073 C 246.247 325.181,246.544 324.878,246.800 324.400 C 247.405 323.270,247.124 322.990,246.457 324.057 M152.800 323.918 C 152.800 324.129,153.091 324.543,153.446 324.838 C 154.005 325.302,154.073 325.273,153.946 324.620 C 153.795 323.843,152.800 323.233,152.800 323.918 M244.174 327.305 C 243.232 328.317,243.093 328.552,243.828 327.892 C 244.503 327.285,245.174 326.907,245.318 327.052 C 245.463 327.196,245.698 327.011,245.840 326.640 C 246.323 325.382,245.753 325.609,244.174 327.305 M165.267 331.720 C 164.376 332.793,165.856 336.783,166.904 336.136 C 167.164 335.975,167.060 335.687,166.630 335.373 C 166.250 335.095,165.890 334.627,165.830 334.334 C 165.770 334.040,165.584 333.483,165.416 333.095 C 165.237 332.683,165.316 332.142,165.604 331.795 C 165.876 331.468,166.008 331.200,165.898 331.200 C 165.788 331.200,165.504 331.434,165.267 331.720 M171.100 341.133 C 171.920 341.992,172.117 341.969,171.767 341.057 C 171.628 340.696,171.264 340.400,170.957 340.400 C 170.533 340.400,170.567 340.575,171.100 341.133 M173.915 343.435 C 174.132 343.823,174.601 344.183,174.957 344.235 C 175.770 344.354,175.417 343.744,174.338 343.167 C 173.621 342.783,173.569 342.816,173.915 343.435 M181.040 347.760 C 181.323 348.498,182.094 348.437,182.245 347.665 C 182.300 347.385,182.252 347.360,182.131 347.607 C 181.987 347.901,181.745 347.887,181.352 347.560 C 180.889 347.176,180.830 347.214,181.040 347.760 M217.994 348.011 C 217.025 348.749,217.023 348.762,217.906 348.536 C 218.405 348.408,218.918 348.133,219.046 347.925 C 219.486 347.213,218.989 347.254,217.994 348.011 M215.000 349.285 C 213.903 349.994,213.886 350.037,214.800 349.785 C 215.856 349.495,216.665 348.917,216.373 348.661 C 216.278 348.578,215.660 348.858,215.000 349.285 M210.800 350.649 C 210.800 351.180,210.909 351.208,211.400 350.800 C 211.730 350.526,212.000 350.234,212.000 350.151 C 212.000 350.068,211.730 350.000,211.400 350.000 C 211.070 350.000,210.800 350.292,210.800 350.649 " stroke="none" fill="#000000" fill-rule="evenodd"></path><path id="path1" d="M200.989 49.341 C 200.555 49.638,198.693 49.994,196.852 50.132 C 195.010 50.270,193.279 50.568,193.006 50.795 C 192.732 51.023,191.719 51.315,190.754 51.446 C 189.789 51.577,188.716 51.935,188.369 52.242 C 188.019 52.551,186.897 52.800,185.856 52.800 C 184.553 52.800,183.904 52.984,183.745 53.400 C 183.592 53.799,182.959 54.001,181.857 54.003 C 180.877 54.004,179.710 54.330,179.000 54.800 C 178.340 55.237,177.327 55.596,176.749 55.597 C 176.171 55.599,175.474 55.870,175.200 56.200 C 174.926 56.530,174.347 56.800,173.913 56.800 C 173.136 56.800,172.653 57.003,169.321 58.730 C 168.397 59.208,167.357 59.600,167.008 59.600 C 166.660 59.600,166.271 59.870,166.145 60.200 C 166.013 60.544,165.415 60.800,164.745 60.800 C 164.074 60.800,163.477 61.056,163.345 61.400 C 163.218 61.730,162.678 62.000,162.145 62.000 C 161.611 62.000,161.076 62.257,160.955 62.572 C 160.835 62.887,160.210 63.327,159.568 63.551 C 158.926 63.775,158.400 64.148,158.400 64.379 C 158.400 64.611,158.059 64.800,157.643 64.800 C 157.226 64.800,156.782 65.070,156.655 65.400 C 156.529 65.730,156.070 66.000,155.635 66.000 C 155.201 66.000,154.610 66.334,154.323 66.743 C 154.035 67.151,153.395 67.613,152.900 67.770 C 152.405 67.926,152.000 68.222,152.000 68.427 C 152.000 68.632,151.724 68.800,151.387 68.800 C 151.051 68.800,150.678 69.052,150.560 69.361 C 150.441 69.669,149.997 70.012,149.572 70.123 C 149.148 70.234,148.800 70.612,148.800 70.963 C 148.800 71.313,148.530 71.600,148.200 71.600 C 147.870 71.600,147.253 71.915,146.829 72.300 C 145.557 73.454,145.036 73.827,144.300 74.108 C 143.915 74.255,143.600 74.651,143.600 74.987 C 143.600 75.324,143.422 75.600,143.205 75.600 C 142.811 75.600,136.800 81.335,136.800 81.711 C 136.800 81.820,135.900 82.868,134.800 84.039 C 133.700 85.211,132.800 86.382,132.800 86.642 C 132.800 86.902,132.530 87.218,132.200 87.345 C 131.870 87.471,131.600 87.738,131.600 87.937 C 131.600 88.136,130.970 88.987,130.200 89.828 C 129.430 90.669,128.800 91.681,128.800 92.078 C 128.800 92.475,128.573 92.800,128.295 92.800 C 127.799 92.800,127.598 93.081,126.408 95.431 C 126.083 96.074,125.588 96.744,125.308 96.920 C 125.029 97.096,124.800 97.771,124.800 98.420 C 124.800 99.202,124.598 99.600,124.200 99.600 C 123.870 99.600,123.600 99.797,123.600 100.038 C 123.600 100.279,123.239 100.983,122.799 101.602 C 122.358 102.221,121.959 103.181,121.914 103.736 C 121.868 104.290,121.643 104.711,121.415 104.672 C 121.187 104.632,120.944 105.275,120.876 106.100 C 120.795 107.081,120.553 107.600,120.176 107.600 C 119.846 107.600,119.599 107.985,119.597 108.500 C 119.596 108.995,119.237 109.940,118.800 110.600 C 118.363 111.260,118.004 112.218,118.003 112.729 C 118.001 113.239,117.730 113.927,117.400 114.257 C 117.070 114.587,116.800 115.362,116.800 115.980 C 116.800 116.597,116.555 117.305,116.256 117.554 C 115.956 117.802,115.614 118.949,115.495 120.103 C 115.263 122.348,114.120 124.793,113.300 124.797 C 112.593 124.801,112.672 122.604,113.400 122.000 C 113.794 121.673,114.000 120.781,114.000 119.400 C 114.000 118.019,114.206 117.127,114.600 116.800 C 114.930 116.526,115.200 115.861,115.200 115.322 C 115.200 114.784,115.470 114.073,115.800 113.743 C 116.130 113.413,116.401 112.751,116.403 112.271 C 116.404 111.792,116.763 110.860,117.200 110.200 C 117.637 109.540,117.996 108.617,117.997 108.149 C 117.999 107.681,118.270 107.074,118.600 106.800 C 118.930 106.526,119.200 105.896,119.200 105.400 C 119.200 104.904,119.470 104.274,119.800 104.000 C 120.130 103.726,120.400 103.186,120.400 102.800 C 120.400 102.414,120.663 101.880,120.985 101.613 C 121.306 101.346,121.690 100.747,121.837 100.283 C 121.985 99.818,122.352 99.191,122.653 98.890 C 122.954 98.589,123.200 97.906,123.200 97.371 C 123.200 96.837,123.431 96.400,123.712 96.400 C 123.994 96.400,124.438 95.905,124.698 95.300 C 125.339 93.810,126.097 92.666,126.700 92.280 C 126.975 92.104,127.200 91.782,127.200 91.564 C 127.200 91.095,128.558 89.169,130.100 87.448 C 130.705 86.774,131.206 86.037,131.213 85.811 C 131.230 85.233,133.075 83.200,133.581 83.200 C 133.811 83.200,134.000 82.949,134.000 82.643 C 134.000 82.336,134.270 81.982,134.600 81.855 C 134.930 81.729,135.200 81.349,135.200 81.013 C 135.200 80.676,135.470 80.400,135.800 80.400 C 136.130 80.400,136.400 80.130,136.400 79.800 C 136.400 79.470,136.572 79.200,136.782 79.200 C 137.278 79.200,139.200 77.278,139.200 76.782 C 139.200 76.572,139.470 76.400,139.800 76.400 C 140.130 76.400,140.400 76.130,140.400 75.800 C 140.400 75.470,140.607 75.200,140.860 75.200 C 141.113 75.200,142.161 74.322,143.190 73.249 C 144.219 72.176,145.452 71.174,145.930 71.022 C 146.409 70.870,146.800 70.578,146.800 70.373 C 146.800 70.168,147.064 70.000,147.386 70.000 C 147.708 70.000,148.165 69.640,148.400 69.200 C 148.635 68.760,149.092 68.400,149.414 68.400 C 149.736 68.400,150.000 68.151,150.000 67.847 C 150.000 67.542,150.315 67.179,150.700 67.040 C 151.593 66.717,152.922 65.928,153.800 65.200 C 154.585 64.548,155.815 63.810,157.061 63.242 C 157.535 63.026,158.040 62.658,158.185 62.425 C 158.329 62.191,158.788 62.000,159.204 62.000 C 159.620 62.000,160.104 61.757,160.280 61.460 C 160.456 61.164,161.112 60.669,161.738 60.360 C 163.103 59.688,164.410 57.712,163.771 57.286 C 163.535 57.129,163.225 56.685,163.083 56.300 C 162.764 55.436,161.081 55.376,160.257 56.200 C 159.927 56.530,159.389 56.800,159.061 56.800 C 158.323 56.800,154.518 58.686,154.192 59.213 C 154.060 59.426,153.508 59.600,152.964 59.600 C 152.420 59.600,151.871 59.870,151.745 60.200 C 151.618 60.530,151.210 60.800,150.837 60.800 C 150.465 60.800,149.959 61.001,149.714 61.246 C 149.250 61.710,148.112 62.407,146.400 63.276 C 145.850 63.555,145.256 64.012,145.080 64.292 C 144.904 64.571,144.499 64.800,144.180 64.800 C 143.861 64.800,143.600 65.070,143.600 65.400 C 143.600 65.733,143.244 66.000,142.800 66.000 C 142.360 66.000,141.640 66.360,141.200 66.800 C 140.760 67.240,140.220 67.600,140.000 67.600 C 139.780 67.600,139.600 67.786,139.600 68.013 C 139.600 68.239,139.299 68.541,138.931 68.682 C 138.301 68.924,137.990 69.159,136.000 70.900 C 135.560 71.285,135.057 71.600,134.881 71.600 C 134.706 71.600,134.121 72.132,133.581 72.783 C 133.042 73.434,132.473 73.974,132.318 73.983 C 131.884 74.009,130.000 75.988,130.000 76.418 C 130.000 76.628,129.828 76.800,129.617 76.800 C 129.060 76.800,126.000 79.793,126.000 80.338 C 126.000 80.592,125.730 80.800,125.400 80.800 C 125.070 80.800,124.800 80.990,124.800 81.223 C 124.800 81.455,123.900 82.508,122.800 83.563 C 121.700 84.617,120.800 85.668,120.800 85.897 C 120.800 86.127,120.530 86.418,120.200 86.545 C 119.870 86.671,119.600 87.079,119.600 87.452 C 119.600 87.824,119.105 88.595,118.500 89.164 C 117.249 90.342,115.600 92.593,115.600 93.122 C 115.600 93.317,115.240 93.802,114.800 94.200 C 114.360 94.598,114.000 95.144,114.000 95.413 C 114.000 95.682,113.730 96.126,113.400 96.400 C 113.070 96.674,112.800 97.236,112.800 97.649 C 112.800 98.062,112.611 98.400,112.379 98.400 C 112.148 98.400,111.775 98.926,111.551 99.568 C 111.327 100.210,110.887 100.835,110.572 100.955 C 110.257 101.076,110.000 101.611,110.000 102.145 C 110.000 102.678,109.730 103.218,109.400 103.345 C 109.056 103.477,108.800 104.074,108.800 104.745 C 108.800 105.388,108.547 106.012,108.238 106.130 C 107.928 106.249,107.547 106.933,107.389 107.650 C 107.231 108.368,106.854 109.203,106.551 109.506 C 106.248 109.809,106.000 110.472,106.000 110.980 C 106.000 111.487,105.730 112.126,105.400 112.400 C 105.070 112.674,104.800 113.394,104.800 114.000 C 104.800 114.606,104.530 115.326,104.200 115.600 C 103.870 115.874,103.600 116.574,103.600 117.155 C 103.600 117.736,103.240 118.884,102.800 119.704 C 102.348 120.548,102.000 121.961,102.000 122.956 C 102.000 124.150,101.807 124.788,101.400 124.945 C 100.939 125.122,100.800 125.885,100.800 128.243 C 100.800 130.430,100.636 131.439,100.228 131.756 C 99.884 132.023,99.554 133.308,99.400 134.978 C 99.259 136.506,98.937 138.126,98.683 138.578 C 98.039 139.728,98.062 160.472,98.710 162.400 C 98.969 163.170,99.289 164.970,99.421 166.400 C 99.562 167.921,99.898 169.184,100.231 169.444 C 100.627 169.754,100.800 170.745,100.800 172.716 C 100.800 174.695,100.980 175.723,101.400 176.143 C 101.765 176.508,102.000 177.487,102.000 178.640 C 102.000 179.810,102.243 180.805,102.634 181.237 C 102.983 181.623,103.368 182.687,103.491 183.603 C 103.614 184.520,103.959 185.363,104.257 185.477 C 104.556 185.592,104.800 186.184,104.800 186.794 C 104.800 187.403,105.070 188.126,105.400 188.400 C 105.730 188.674,106.000 189.286,106.000 189.760 C 106.000 190.234,106.360 190.930,106.800 191.307 C 107.240 191.684,107.600 192.425,107.600 192.953 C 107.600 193.482,107.870 194.018,108.200 194.145 C 108.530 194.271,108.800 194.836,108.800 195.400 C 108.800 195.964,109.070 196.529,109.400 196.655 C 109.730 196.782,110.000 197.228,110.000 197.647 C 110.000 198.065,110.360 198.716,110.800 199.093 C 111.240 199.470,111.600 200.098,111.600 200.489 C 111.600 200.880,111.784 201.200,112.010 201.200 C 112.235 201.200,112.591 201.650,112.800 202.200 C 113.009 202.750,113.350 203.200,113.558 203.200 C 113.766 203.200,114.052 203.725,114.193 204.367 C 114.334 205.008,114.708 205.633,115.024 205.754 C 115.341 205.876,115.600 206.251,115.600 206.587 C 115.600 206.924,115.870 207.200,116.200 207.200 C 116.530 207.200,116.800 207.476,116.800 207.813 C 116.800 208.149,117.070 208.529,117.400 208.655 C 117.730 208.782,118.000 209.138,118.000 209.447 C 118.000 209.755,118.360 210.316,118.800 210.693 C 119.240 211.070,119.600 211.608,119.600 211.889 C 119.600 212.170,119.870 212.400,120.200 212.400 C 120.530 212.400,120.800 212.655,120.800 212.966 C 120.800 213.554,121.815 214.890,123.700 216.782 C 124.305 217.390,124.800 218.061,124.800 218.274 C 124.800 218.487,125.430 219.186,126.200 219.828 C 126.970 220.470,127.600 221.222,127.600 221.498 C 127.600 221.774,127.870 222.000,128.200 222.000 C 128.530 222.000,128.800 222.235,128.800 222.522 C 128.800 222.808,129.430 223.654,130.200 224.400 C 130.970 225.146,131.600 225.972,131.600 226.236 C 131.600 226.499,131.870 226.818,132.200 226.945 C 132.530 227.071,132.800 227.451,132.800 227.787 C 132.800 228.124,133.070 228.400,133.400 228.400 C 133.730 228.400,134.000 228.600,134.000 228.844 C 134.000 229.458,135.690 231.185,136.300 231.193 C 136.575 231.197,136.800 231.523,136.800 231.919 C 136.800 232.661,137.279 233.370,139.500 235.912 C 140.215 236.730,140.800 237.554,140.800 237.742 C 140.800 237.931,141.335 238.760,141.988 239.585 C 142.641 240.410,143.357 241.561,143.578 242.142 C 143.799 242.724,144.165 243.200,144.390 243.200 C 144.616 243.200,144.800 243.628,144.800 244.151 C 144.800 244.674,145.058 245.317,145.374 245.579 C 145.690 245.841,146.064 246.583,146.206 247.228 C 146.348 247.872,146.609 248.400,146.787 248.400 C 146.965 248.400,147.229 249.030,147.374 249.800 C 147.531 250.638,147.870 251.200,148.218 251.200 C 148.642 251.200,148.800 251.693,148.800 253.013 C 148.800 254.255,148.989 254.898,149.400 255.055 C 149.835 255.222,150.001 255.907,150.002 257.543 C 150.004 258.874,150.274 260.292,150.660 261.000 C 151.197 261.984,151.347 263.889,151.493 271.600 C 151.634 279.056,151.788 281.092,152.236 281.444 C 152.546 281.688,152.800 282.278,152.800 282.755 C 152.800 284.212,156.121 287.200,157.740 287.200 C 158.489 287.200,159.326 287.470,159.600 287.800 C 160.037 288.326,165.042 288.400,200.200 288.400 C 235.358 288.400,240.363 288.326,240.800 287.800 C 241.086 287.455,241.958 287.200,242.849 287.200 C 243.961 287.200,244.400 287.030,244.400 286.600 C 244.400 286.270,244.687 286.000,245.037 286.000 C 245.388 286.000,245.769 285.640,245.884 285.200 C 245.999 284.760,246.258 284.400,246.459 284.400 C 246.660 284.400,246.937 284.085,247.073 283.700 C 247.210 283.315,247.550 282.730,247.828 282.400 C 248.190 281.971,248.391 279.231,248.531 272.800 C 248.687 265.641,248.857 263.555,249.361 262.600 C 249.739 261.885,249.996 260.410,249.998 258.949 C 249.999 257.261,250.187 256.343,250.600 256.000 C 250.964 255.698,251.200 254.822,251.200 253.775 C 251.200 252.825,251.357 251.950,251.548 251.832 C 251.739 251.714,252.389 250.578,252.993 249.309 C 253.596 248.039,254.250 246.730,254.447 246.400 C 254.644 246.070,254.894 245.575,255.003 245.300 C 255.515 244.003,255.660 243.722,256.400 242.600 C 256.835 241.940,257.415 240.950,257.687 240.400 C 257.960 239.850,258.412 239.256,258.692 239.080 C 258.971 238.904,259.200 238.499,259.200 238.180 C 259.200 237.861,259.389 237.600,259.621 237.600 C 259.852 237.600,260.230 237.060,260.460 236.400 C 260.690 235.740,261.131 235.200,261.439 235.200 C 261.748 235.200,262.000 234.840,262.000 234.400 C 262.000 233.960,262.186 233.600,262.413 233.600 C 262.639 233.600,262.944 233.285,263.089 232.900 C 263.235 232.515,263.916 231.650,264.604 230.978 C 265.292 230.305,265.972 229.450,266.115 229.078 C 266.258 228.705,266.561 228.400,266.787 228.400 C 267.014 228.400,267.200 228.214,267.200 227.987 C 267.200 227.759,267.698 227.084,268.307 226.487 C 270.082 224.745,271.621 222.554,271.298 222.231 C 271.134 222.067,271.180 221.990,271.400 222.060 C 271.803 222.188,273.985 220.205,274.017 219.682 C 274.026 219.527,274.566 218.958,275.217 218.419 C 275.868 217.879,276.400 217.304,276.400 217.141 C 276.400 216.978,277.029 216.160,277.798 215.322 C 278.567 214.485,279.197 213.594,279.198 213.343 C 279.199 213.091,279.470 212.782,279.800 212.655 C 280.130 212.529,280.400 212.149,280.400 211.813 C 280.400 211.476,280.676 211.200,281.013 211.200 C 281.349 211.200,281.745 210.885,281.892 210.500 C 282.039 210.115,282.307 209.620,282.487 209.400 C 282.667 209.180,283.171 208.567,283.607 208.039 C 284.043 207.510,284.400 206.878,284.400 206.635 C 284.400 206.392,284.760 205.968,285.200 205.693 C 285.640 205.418,286.000 204.829,286.000 204.384 C 286.000 203.939,286.270 203.471,286.600 203.345 C 286.930 203.218,287.200 202.864,287.200 202.557 C 287.200 202.251,287.560 201.595,288.000 201.100 C 289.762 199.117,290.000 198.779,290.000 198.249 C 290.000 197.946,290.270 197.474,290.600 197.200 C 290.930 196.926,291.200 196.358,291.200 195.938 C 291.200 195.519,291.470 195.071,291.800 194.945 C 292.130 194.818,292.404 194.329,292.409 193.857 C 292.414 193.386,292.770 192.550,293.200 192.000 C 293.630 191.450,293.992 190.730,294.004 190.400 C 294.016 190.070,294.290 189.451,294.613 189.024 C 294.936 188.596,295.200 187.806,295.200 187.268 C 295.200 186.729,295.458 186.088,295.773 185.844 C 296.088 185.600,296.434 184.799,296.543 184.064 C 296.652 183.329,297.025 182.415,297.371 182.032 C 297.735 181.630,298.000 180.622,298.000 179.640 C 298.000 178.665,298.255 177.688,298.600 177.343 C 299.016 176.927,299.200 175.906,299.200 174.014 C 299.200 172.094,299.360 171.224,299.739 171.079 C 300.084 170.946,300.375 169.836,300.546 167.998 C 300.692 166.417,301.035 164.736,301.306 164.262 C 302.017 163.022,302.007 137.372,301.295 136.123 C 301.021 135.640,300.699 134.290,300.580 133.123 C 300.310 130.472,300.113 129.883,299.603 130.198 C 299.346 130.357,299.200 129.368,299.200 127.473 C 299.200 125.316,299.035 124.361,298.600 124.000 C 298.245 123.705,297.999 122.828,297.997 121.851 C 297.996 120.877,297.669 119.708,297.200 119.000 C 296.763 118.340,296.404 117.435,296.403 116.989 C 296.400 116.090,294.251 114.000,293.330 114.000 C 293.007 114.000,292.473 113.730,292.143 113.400 C 291.813 113.070,290.868 112.800,290.042 112.800 L 288.541 112.800 288.481 110.502 C 288.440 108.960,288.220 108.057,287.810 107.758 C 286.957 107.134,287.045 106.609,288.210 105.352 C 289.587 103.866,289.856 102.541,289.056 101.187 C 288.695 100.576,288.400 99.784,288.400 99.426 C 288.400 99.068,288.130 98.671,287.800 98.545 C 287.470 98.418,287.200 98.064,287.200 97.757 C 287.200 97.132,286.624 96.396,283.959 93.613 C 282.946 92.556,281.748 91.574,281.296 91.430 C 280.844 91.287,280.373 90.906,280.250 90.585 C 280.126 90.263,279.589 90.000,279.055 90.000 C 278.522 90.000,277.982 89.730,277.855 89.400 C 277.489 88.445,273.798 88.582,273.102 89.576 C 272.791 90.020,272.224 90.290,271.779 90.207 C 271.351 90.127,270.436 90.047,269.747 90.031 C 267.827 89.984,267.793 88.837,269.649 86.746 C 270.501 85.786,271.199 84.603,271.199 84.119 C 271.200 83.634,271.415 82.766,271.678 82.189 C 272.048 81.377,272.048 80.969,271.678 80.376 C 271.415 79.955,271.200 79.063,271.200 78.393 C 271.200 77.679,270.952 77.080,270.600 76.945 C 270.270 76.818,270.000 76.526,270.000 76.295 C 270.000 75.864,266.955 72.800,266.527 72.800 C 266.396 72.800,266.058 72.485,265.776 72.100 C 265.334 71.495,264.552 71.400,260.000 71.400 C 255.448 71.400,254.667 71.495,254.224 72.100 C 253.942 72.485,253.349 72.800,252.905 72.800 C 252.461 72.800,251.874 73.070,251.600 73.400 C 251.326 73.730,250.747 74.000,250.314 74.000 C 249.881 74.000,249.069 74.360,248.509 74.800 C 247.950 75.240,247.178 75.600,246.795 75.600 C 246.412 75.600,245.874 75.870,245.600 76.200 C 245.319 76.538,244.447 76.800,243.600 76.800 C 242.753 76.800,241.881 77.062,241.600 77.400 C 241.326 77.730,240.493 78.000,239.750 78.000 C 239.006 78.000,237.725 78.360,236.904 78.800 C 236.084 79.240,234.756 79.600,233.955 79.600 C 233.148 79.600,232.276 79.868,232.000 80.200 C 231.726 80.530,230.849 80.806,230.051 80.814 C 229.253 80.822,228.150 81.086,227.600 81.400 C 227.050 81.714,226.037 81.978,225.349 81.986 C 224.661 81.994,223.885 82.257,223.624 82.571 C 223.360 82.889,222.014 83.263,220.587 83.416 C 219.176 83.567,217.815 83.940,217.562 84.245 C 217.284 84.580,216.324 84.800,215.138 84.800 C 213.762 84.800,213.106 84.979,212.945 85.400 C 212.798 85.783,212.182 86.000,211.242 86.000 C 210.432 86.000,209.063 86.360,208.200 86.800 C 207.337 87.240,206.303 87.600,205.903 87.600 C 205.502 87.600,205.071 87.870,204.945 88.200 C 204.796 88.588,204.176 88.800,203.186 88.800 C 202.345 88.800,201.418 89.039,201.125 89.332 C 200.833 89.625,199.918 89.974,199.092 90.108 C 198.267 90.241,197.311 90.632,196.967 90.976 C 196.624 91.319,195.900 91.600,195.359 91.600 C 194.818 91.600,194.271 91.870,194.145 92.200 C 194.018 92.530,193.506 92.800,193.006 92.800 C 192.507 92.800,191.874 93.070,191.600 93.400 C 191.326 93.730,190.792 94.000,190.413 94.000 C 190.034 94.000,189.398 94.360,189.000 94.800 C 188.602 95.240,187.848 95.600,187.325 95.600 C 186.803 95.600,186.278 95.854,186.159 96.164 C 186.039 96.474,185.505 96.837,184.971 96.972 C 184.437 97.106,184.000 97.392,184.000 97.608 C 184.000 97.823,183.727 98.000,183.393 98.000 C 183.059 98.000,182.174 98.630,181.426 99.400 C 180.679 100.170,179.776 100.800,179.421 100.800 C 179.066 100.800,178.674 101.063,178.550 101.385 C 178.427 101.706,177.983 102.079,177.563 102.212 C 177.143 102.345,176.800 102.712,176.800 103.027 C 176.800 103.342,176.440 103.600,176.000 103.600 C 175.560 103.600,175.192 103.825,175.183 104.100 C 175.174 104.375,174.634 105.042,173.983 105.581 C 173.332 106.121,172.800 106.796,172.800 107.081 C 172.800 107.367,172.606 107.600,172.369 107.600 C 171.877 107.600,168.800 110.790,168.800 111.299 C 168.800 111.483,168.623 111.851,168.406 112.117 C 166.559 114.382,166.000 115.170,166.000 115.509 C 166.000 115.725,165.730 116.126,165.400 116.400 C 165.070 116.674,164.800 117.217,164.800 117.606 C 164.800 117.996,164.530 118.418,164.200 118.545 C 163.870 118.671,163.600 119.222,163.600 119.768 C 163.600 120.314,163.324 120.915,162.987 121.103 C 162.650 121.292,162.261 122.156,162.121 123.023 C 161.981 123.890,161.634 124.780,161.350 125.000 C 161.055 125.228,160.797 126.381,160.749 127.677 C 160.703 128.930,160.491 129.920,160.279 129.877 C 160.066 129.835,159.681 130.706,159.423 131.814 C 159.165 132.922,158.807 134.065,158.629 134.354 C 158.450 134.643,158.155 137.156,157.973 139.939 C 157.409 148.552,157.024 150.325,155.817 149.862 C 154.961 149.534,154.911 142.117,155.761 141.444 C 156.119 141.160,156.409 139.800,156.564 137.679 C 156.698 135.852,157.075 133.715,157.403 132.930 C 157.732 132.145,158.000 130.881,158.000 130.123 C 158.000 129.364,158.270 128.473,158.600 128.143 C 158.930 127.813,159.200 126.855,159.200 126.014 C 159.200 125.096,159.417 124.402,159.743 124.277 C 160.041 124.163,160.388 123.303,160.514 122.367 C 160.639 121.430,161.025 120.506,161.371 120.312 C 161.717 120.119,162.000 119.530,162.000 119.004 C 162.000 118.478,162.191 117.929,162.425 117.785 C 162.658 117.640,163.021 117.135,163.231 116.661 C 163.440 116.188,163.972 115.260,164.413 114.600 C 164.854 113.940,165.431 112.905,165.695 112.300 C 165.959 111.695,166.406 111.200,166.688 111.200 C 166.969 111.200,167.200 110.928,167.200 110.595 C 167.200 110.262,168.370 108.791,169.800 107.325 C 171.230 105.859,172.400 104.513,172.400 104.334 C 172.400 104.154,172.760 103.782,173.200 103.507 C 173.640 103.232,174.000 102.800,174.000 102.547 C 174.000 102.294,174.405 101.984,174.900 101.858 C 175.395 101.732,176.396 101.083,177.125 100.415 C 177.853 99.747,178.618 99.200,178.825 99.200 C 179.031 99.200,179.200 99.052,179.200 98.871 C 179.200 98.496,182.283 96.400,182.836 96.400 C 183.036 96.400,183.200 96.130,183.200 95.800 C 183.200 95.399,183.601 95.200,184.413 95.200 C 185.087 95.200,185.721 94.950,185.841 94.636 C 185.961 94.326,186.517 93.957,187.077 93.816 C 187.638 93.676,188.358 93.299,188.677 92.980 C 188.996 92.661,189.610 92.400,190.041 92.400 C 190.472 92.400,190.929 92.130,191.055 91.800 C 191.182 91.470,191.613 91.200,192.014 91.200 C 192.415 91.200,193.013 90.930,193.343 90.600 C 193.673 90.270,194.411 90.000,194.984 90.000 C 195.557 90.000,196.125 89.739,196.248 89.419 C 196.372 89.097,197.270 88.719,198.267 88.569 C 199.255 88.421,200.159 88.052,200.275 87.750 C 200.402 87.418,201.083 87.200,201.994 87.200 C 202.846 87.200,203.718 86.939,204.000 86.600 C 204.274 86.270,204.994 86.000,205.600 86.000 C 206.206 86.000,206.913 85.746,207.171 85.435 C 207.429 85.124,208.522 84.748,209.600 84.600 C 210.678 84.452,211.771 84.076,212.029 83.765 C 212.313 83.423,213.249 83.200,214.400 83.200 C 215.603 83.200,216.485 82.979,216.800 82.600 C 217.104 82.234,217.981 82.000,219.050 82.000 C 220.039 82.000,221.454 81.651,222.296 81.200 C 223.116 80.760,224.341 80.400,225.018 80.400 C 225.694 80.400,226.596 80.136,227.024 79.813 C 227.451 79.490,228.466 79.220,229.280 79.213 C 230.099 79.206,230.903 78.955,231.080 78.652 C 231.269 78.328,232.354 78.027,233.737 77.916 C 235.022 77.813,236.199 77.525,236.353 77.277 C 236.506 77.028,237.615 76.708,238.816 76.564 C 240.017 76.420,241.144 76.055,241.320 75.751 C 241.496 75.448,242.248 75.200,242.991 75.200 C 243.735 75.200,244.613 74.930,244.943 74.600 C 245.273 74.270,245.905 74.000,246.348 74.000 C 246.791 74.000,247.256 73.833,247.382 73.629 C 247.508 73.425,248.284 73.041,249.106 72.776 C 251.421 72.029,253.600 69.054,253.600 66.641 C 253.600 64.620,250.712 60.800,249.184 60.800 C 248.800 60.800,248.382 60.530,248.255 60.200 C 248.129 59.870,247.759 59.600,247.434 59.600 C 246.805 59.600,243.259 57.817,242.620 57.179 C 242.411 56.971,241.640 56.800,240.907 56.800 C 240.092 56.800,239.486 56.567,239.345 56.200 C 239.180 55.772,238.511 55.600,237.006 55.600 C 235.620 55.600,234.727 55.806,234.400 56.200 C 234.126 56.530,233.367 56.800,232.713 56.800 C 232.059 56.800,231.046 57.059,230.462 57.376 C 229.878 57.693,228.725 58.061,227.900 58.194 C 227.075 58.327,226.400 58.595,226.400 58.789 C 226.400 58.984,225.365 59.267,224.100 59.419 C 222.835 59.571,221.528 59.933,221.195 60.223 C 220.863 60.514,219.468 60.792,218.095 60.841 C 216.325 60.905,215.600 61.087,215.600 61.466 C 215.600 61.833,215.033 62.000,213.787 62.000 C 212.790 62.000,211.305 62.287,210.487 62.637 C 209.669 62.987,208.466 63.364,207.814 63.475 C 207.162 63.585,206.267 63.928,205.825 64.238 C 205.383 64.547,204.156 64.800,203.098 64.800 C 201.758 64.800,201.105 64.982,200.945 65.400 C 200.788 65.807,200.150 66.000,198.956 66.000 C 197.961 66.000,196.548 66.348,195.704 66.800 C 194.884 67.240,193.736 67.600,193.155 67.600 C 192.574 67.600,191.874 67.870,191.600 68.200 C 191.326 68.530,190.507 68.800,189.780 68.800 C 189.052 68.800,188.187 69.070,187.857 69.400 C 187.527 69.730,186.704 70.000,186.029 70.000 C 185.226 70.000,184.800 70.200,184.800 70.575 C 184.800 70.952,184.168 71.246,182.968 71.426 C 181.961 71.577,181.041 71.948,180.925 72.250 C 180.806 72.562,180.147 72.800,179.406 72.800 C 178.687 72.800,177.874 73.070,177.600 73.400 C 177.326 73.730,176.788 74.000,176.405 74.000 C 176.022 74.000,175.250 74.360,174.691 74.800 C 174.131 75.240,173.477 75.600,173.237 75.600 C 172.997 75.600,172.800 75.870,172.800 76.200 C 172.800 76.601,172.399 76.800,171.587 76.800 C 170.879 76.800,170.279 77.049,170.145 77.400 C 170.018 77.730,169.490 78.000,168.971 78.000 C 168.438 78.000,167.842 78.347,167.600 78.800 C 167.365 79.240,166.840 79.600,166.435 79.600 C 166.030 79.600,165.474 79.870,165.200 80.200 C 164.926 80.530,164.555 80.800,164.376 80.800 C 164.196 80.800,163.453 81.347,162.725 82.015 C 161.996 82.683,160.995 83.332,160.500 83.458 C 160.005 83.584,159.600 83.937,159.600 84.243 C 159.600 84.550,159.324 84.800,158.987 84.800 C 158.651 84.800,158.271 85.070,158.145 85.400 C 158.018 85.730,157.745 86.000,157.538 86.000 C 157.082 86.000,155.200 87.979,155.200 88.458 C 155.200 88.646,155.035 88.800,154.834 88.800 C 154.008 88.800,150.000 92.663,150.000 93.459 C 150.000 93.757,149.730 94.000,149.400 94.000 C 149.067 94.000,148.800 94.356,148.800 94.800 C 148.800 95.244,148.533 95.600,148.200 95.600 C 147.870 95.600,147.600 95.765,147.600 95.966 C 147.600 96.167,146.970 96.980,146.200 97.773 C 145.430 98.566,144.800 99.552,144.800 99.964 C 144.800 100.377,144.530 100.818,144.200 100.945 C 143.870 101.071,143.600 101.423,143.600 101.725 C 143.600 102.028,143.240 102.602,142.800 103.000 C 142.360 103.398,142.000 103.979,142.000 104.291 C 142.000 104.602,141.730 105.127,141.400 105.457 C 141.070 105.787,140.800 106.385,140.800 106.786 C 140.800 107.187,140.530 107.618,140.200 107.745 C 139.870 107.871,139.600 108.357,139.600 108.824 C 139.600 109.292,139.240 110.131,138.800 110.691 C 138.360 111.250,138.000 112.204,138.000 112.811 C 138.000 113.423,137.733 114.017,137.400 114.145 C 136.990 114.302,136.800 114.943,136.800 116.168 C 136.800 117.260,136.587 118.085,136.254 118.280 C 135.954 118.456,135.611 119.140,135.492 119.800 C 135.373 120.460,134.996 121.720,134.655 122.600 C 134.314 123.480,134.021 124.920,134.005 125.800 C 133.988 126.680,133.710 127.749,133.387 128.176 C 132.963 128.737,132.800 130.049,132.800 132.905 C 132.800 137.548,132.096 138.953,130.546 137.403 C 130.018 136.875,130.021 136.705,130.575 135.914 C 131.042 135.247,131.200 133.994,131.200 130.944 C 131.200 128.276,131.356 126.815,131.651 126.716 C 131.899 126.634,132.342 125.494,132.635 124.183 C 133.562 120.048,134.081 118.232,134.649 117.138 C 134.952 116.554,135.200 115.539,135.200 114.881 C 135.200 114.224,135.444 113.592,135.742 113.478 C 136.040 113.363,136.389 112.622,136.518 111.831 C 136.646 111.039,137.032 110.111,137.376 109.767 C 137.719 109.424,138.000 108.725,138.000 108.214 C 138.000 107.703,138.270 107.182,138.600 107.055 C 138.930 106.929,139.200 106.369,139.200 105.813 C 139.200 105.256,139.378 104.800,139.595 104.800 C 139.812 104.800,140.258 104.215,140.587 103.500 C 141.397 101.736,142.101 100.663,142.700 100.280 C 142.975 100.104,143.200 99.519,143.200 98.980 C 143.200 98.376,143.430 98.000,143.800 98.000 C 144.130 98.000,144.400 97.736,144.400 97.414 C 144.400 97.092,144.760 96.635,145.200 96.400 C 145.640 96.165,146.000 95.773,146.000 95.529 C 146.000 95.286,146.540 94.571,147.200 93.940 C 147.860 93.309,148.400 92.623,148.400 92.416 C 148.400 92.208,149.030 91.427,149.800 90.679 C 150.570 89.931,151.200 89.112,151.200 88.860 C 151.200 88.607,151.579 88.400,152.043 88.400 C 152.628 88.400,152.815 88.216,152.655 87.800 C 152.499 87.392,152.677 87.200,153.213 87.200 C 153.646 87.200,154.000 86.930,154.000 86.600 C 154.000 86.270,154.270 86.000,154.600 86.000 C 154.930 86.000,155.200 85.733,155.200 85.408 C 155.200 85.082,155.650 84.702,156.200 84.564 C 156.750 84.426,157.200 84.148,157.200 83.947 C 157.200 83.745,157.650 83.409,158.200 83.200 C 158.750 82.991,159.200 82.680,159.201 82.510 C 159.201 82.339,160.007 81.660,160.992 81.000 C 161.977 80.340,162.786 79.665,162.791 79.500 C 162.796 79.335,163.160 79.200,163.600 79.200 C 164.044 79.200,164.400 78.933,164.400 78.600 C 164.400 78.267,164.756 78.000,165.200 78.000 C 165.640 78.000,166.334 77.666,166.742 77.258 C 167.150 76.850,167.960 76.396,168.542 76.250 C 169.124 76.104,169.600 75.808,169.600 75.592 C 169.600 75.377,169.947 75.200,170.371 75.200 C 170.796 75.200,171.413 74.930,171.743 74.600 C 172.073 74.270,172.631 74.000,172.984 74.000 C 173.337 74.000,173.729 73.729,173.856 73.398 C 173.983 73.067,174.777 72.685,175.619 72.551 C 176.461 72.416,177.246 72.057,177.363 71.753 C 177.479 71.449,178.126 71.200,178.800 71.200 C 179.520 71.200,180.120 70.953,180.255 70.600 C 180.391 70.246,181.001 69.996,181.743 69.991 C 182.434 69.986,183.450 69.630,184.000 69.200 C 184.550 68.770,185.476 68.414,186.057 68.409 C 186.639 68.404,187.218 68.130,187.345 67.800 C 187.476 67.457,188.073 67.200,188.738 67.200 C 189.378 67.200,190.107 66.953,190.358 66.650 C 190.609 66.348,191.731 66.012,192.850 65.905 C 193.969 65.797,195.015 65.500,195.173 65.244 C 195.331 64.988,196.390 64.669,197.527 64.534 C 198.664 64.399,199.797 64.044,200.046 63.745 C 200.295 63.445,201.241 63.199,202.149 63.198 C 203.057 63.196,204.316 62.926,204.946 62.598 C 205.576 62.269,206.476 61.999,206.946 61.998 C 207.416 61.996,208.289 61.740,208.887 61.428 C 209.485 61.116,210.965 60.737,212.175 60.586 C 213.386 60.435,214.583 60.061,214.837 59.755 C 215.125 59.409,216.098 59.200,217.425 59.200 C 218.595 59.200,219.672 59.007,219.817 58.772 C 219.963 58.537,220.459 58.205,220.919 58.034 C 221.816 57.703,223.014 53.779,222.345 53.366 C 222.155 53.249,222.000 52.803,222.000 52.376 C 222.000 51.105,220.568 50.001,218.900 49.987 C 218.075 49.980,217.051 49.710,216.624 49.387 C 215.541 48.569,202.173 48.529,200.989 49.341 M259.600 98.600 C 259.874 98.930,260.616 99.200,261.249 99.200 C 262.005 99.200,262.400 99.406,262.400 99.800 C 262.400 100.130,262.743 100.400,263.163 100.400 C 263.728 100.400,263.871 100.607,263.716 101.200 C 263.601 101.640,263.264 102.000,262.967 102.000 C 262.671 102.000,262.235 102.360,262.000 102.800 C 261.765 103.240,261.348 103.600,261.075 103.600 C 260.802 103.600,259.987 104.140,259.264 104.800 C 258.542 105.460,257.794 106.000,257.602 106.000 C 257.411 106.000,257.140 106.360,257.000 106.800 C 256.860 107.240,256.488 107.600,256.173 107.600 C 255.858 107.600,255.600 107.870,255.600 108.200 C 255.600 108.530,255.345 108.800,255.034 108.800 C 254.471 108.800,253.404 109.597,251.151 111.700 C 250.503 112.305,249.808 112.800,249.606 112.800 C 249.405 112.800,249.096 113.028,248.920 113.306 C 248.744 113.584,247.655 114.591,246.500 115.543 C 245.278 116.550,244.510 117.469,244.664 117.738 C 244.809 117.992,244.785 118.071,244.611 117.913 C 244.266 117.602,240.800 119.925,240.800 120.468 C 240.800 120.651,240.530 120.800,240.200 120.800 C 239.870 120.800,239.600 121.070,239.600 121.400 C 239.600 121.730,239.370 122.000,239.089 122.000 C 238.808 122.000,238.294 122.315,237.946 122.700 C 236.964 123.788,235.633 124.800,235.183 124.800 C 234.958 124.800,234.674 125.063,234.550 125.385 C 234.427 125.706,233.983 126.079,233.563 126.212 C 233.143 126.345,232.800 126.712,232.800 127.027 C 232.800 127.872,231.075 127.732,230.000 126.800 C 229.493 126.360,228.642 126.000,228.110 126.000 C 227.578 126.000,226.873 125.730,226.543 125.400 C 226.176 125.033,225.196 124.800,224.020 124.800 C 222.800 124.800,221.916 125.019,221.600 125.400 C 221.326 125.730,220.770 126.000,220.365 126.000 C 219.241 126.000,216.800 128.335,216.800 129.409 C 216.800 129.918,216.485 130.899,216.100 131.587 C 215.433 132.780,215.433 132.865,216.100 133.364 C 216.485 133.652,216.800 134.397,216.800 135.018 C 216.800 136.176,218.159 138.000,219.021 138.000 C 219.285 138.000,219.726 138.270,220.000 138.600 C 220.348 139.019,221.271 139.200,223.062 139.200 C 224.971 139.200,225.684 139.047,225.855 138.600 C 225.982 138.270,226.510 138.000,227.029 138.000 C 227.562 138.000,228.158 137.653,228.400 137.200 C 228.635 136.760,229.073 136.400,229.371 136.400 C 229.670 136.400,230.018 136.130,230.145 135.800 C 230.691 134.376,231.292 134.875,240.100 144.069 C 240.866 144.869,241.050 146.400,240.379 146.400 C 240.148 146.400,239.770 146.940,239.540 147.600 C 239.310 148.260,238.869 148.800,238.561 148.800 C 238.203 148.800,238.000 149.239,238.000 150.013 C 238.000 150.721,237.751 151.321,237.400 151.455 C 236.627 151.752,236.575 155.318,237.333 156.075 C 237.625 156.368,237.987 157.056,238.137 157.604 C 238.770 159.921,246.298 161.775,247.055 159.800 C 247.182 159.470,247.480 159.200,247.717 159.200 C 248.357 159.200,250.000 157.546,250.000 156.902 C 250.000 156.594,250.270 156.073,250.600 155.743 C 251.016 155.327,251.200 154.307,251.200 152.420 C 251.200 150.488,251.026 149.553,250.600 149.200 C 250.270 148.926,250.000 148.364,250.000 147.951 C 250.000 147.538,249.640 146.840,249.200 146.400 C 248.760 145.960,248.400 145.426,248.400 145.214 C 248.400 145.002,248.760 144.635,249.200 144.400 C 249.640 144.165,250.000 143.783,250.000 143.552 C 250.000 143.321,250.585 142.505,251.300 141.739 C 253.718 139.150,254.000 138.801,254.000 138.400 C 254.000 138.180,254.270 138.000,254.600 138.000 C 254.933 138.000,255.200 137.644,255.200 137.200 C 255.200 136.756,255.467 136.400,255.800 136.400 C 256.130 136.400,256.400 136.130,256.400 135.800 C 256.400 135.470,256.670 135.200,257.000 135.200 C 257.330 135.200,257.600 135.029,257.600 134.819 C 257.600 134.610,258.195 133.845,258.921 133.119 C 260.838 131.206,263.200 128.191,263.200 127.659 C 263.200 127.406,263.470 127.200,263.800 127.200 C 264.130 127.200,264.400 127.033,264.400 126.830 C 264.400 126.626,265.300 125.550,266.400 124.438 C 267.500 123.327,268.400 122.261,268.400 122.071 C 268.400 121.880,268.760 121.398,269.200 121.000 C 269.640 120.602,270.000 120.034,270.000 119.738 C 270.000 119.442,270.180 119.200,270.400 119.200 C 270.814 119.200,272.400 117.763,272.400 117.388 C 272.400 117.271,273.030 116.597,273.800 115.890 C 274.570 115.184,275.200 114.379,275.200 114.103 C 275.200 113.826,275.470 113.600,275.800 113.600 C 276.130 113.600,276.414 113.375,276.432 113.100 C 276.449 112.825,276.644 113.095,276.865 113.700 C 277.086 114.305,277.412 114.800,277.589 114.800 C 277.766 114.800,278.029 115.430,278.174 116.200 C 278.318 116.970,278.587 117.600,278.771 117.600 C 279.774 117.600,279.439 119.331,278.168 120.714 C 277.418 121.532,276.803 122.425,276.802 122.700 C 276.801 122.975,276.530 123.200,276.200 123.200 C 275.870 123.200,275.600 123.520,275.600 123.911 C 275.600 124.302,275.240 124.930,274.800 125.307 C 274.360 125.684,274.000 126.332,274.000 126.747 C 274.000 127.162,273.730 127.726,273.400 128.000 C 273.070 128.274,272.800 128.814,272.800 129.200 C 272.800 129.586,272.552 130.107,272.250 130.359 C 271.947 130.610,271.588 131.517,271.451 132.374 C 271.313 133.231,270.981 134.006,270.712 134.096 C 270.400 134.200,270.165 135.410,270.063 137.430 C 269.973 139.225,269.664 140.942,269.352 141.389 C 268.942 141.975,268.800 143.736,268.800 148.246 C 268.800 153.025,268.683 154.359,268.250 154.525 C 267.948 154.641,267.574 155.606,267.419 156.668 C 267.264 157.731,266.882 158.999,266.569 159.486 C 266.256 159.973,266.000 160.719,266.000 161.143 C 266.000 161.567,265.730 162.018,265.400 162.145 C 265.049 162.279,264.800 162.879,264.800 163.587 C 264.800 164.297,264.591 164.800,264.295 164.800 C 263.802 164.800,263.351 165.464,262.328 167.700 C 262.051 168.305,261.594 168.800,261.312 168.800 C 261.031 168.800,260.800 168.978,260.800 169.195 C 260.800 169.744,254.988 175.600,254.443 175.600 C 254.200 175.600,254.000 175.870,254.000 176.200 C 254.000 176.530,253.730 176.800,253.400 176.800 C 253.070 176.800,252.800 176.989,252.800 177.221 C 252.800 177.452,252.274 177.825,251.632 178.049 C 250.990 178.273,250.365 178.713,250.245 179.028 C 250.124 179.343,249.681 179.600,249.262 179.600 C 248.842 179.600,248.274 179.870,248.000 180.200 C 247.726 180.530,247.096 180.800,246.600 180.800 C 246.104 180.800,245.474 181.070,245.200 181.400 C 244.926 181.730,244.409 182.006,244.051 182.014 C 243.693 182.021,242.680 182.375,241.800 182.800 C 240.920 183.225,239.789 183.579,239.287 183.586 C 238.786 183.594,238.271 183.870,238.145 184.200 C 237.952 184.703,236.728 184.800,230.557 184.800 C 224.284 184.800,223.200 184.712,223.200 184.200 C 223.200 183.823,222.820 183.600,222.178 183.600 C 221.616 183.600,220.375 183.244,219.421 182.810 C 218.467 182.375,217.139 181.978,216.471 181.927 C 215.802 181.876,215.288 181.651,215.328 181.427 C 215.367 181.202,214.950 180.953,214.400 180.873 C 213.850 180.793,213.130 180.487,212.800 180.195 C 212.470 179.902,211.718 179.542,211.129 179.395 C 210.540 179.248,209.961 178.874,209.841 178.564 C 209.722 178.254,209.349 178.000,209.013 178.000 C 208.676 178.000,208.400 177.730,208.400 177.400 C 208.400 177.070,208.124 176.800,207.787 176.800 C 207.451 176.800,207.071 176.530,206.945 176.200 C 206.818 175.870,206.545 175.600,206.338 175.600 C 205.666 175.600,200.400 169.957,200.400 169.236 C 200.400 168.996,200.150 168.800,199.843 168.800 C 199.537 168.800,199.174 168.350,199.036 167.800 C 198.898 167.250,198.608 166.800,198.392 166.800 C 198.177 166.800,198.000 166.350,198.000 165.800 C 198.000 165.203,197.771 164.800,197.432 164.800 C 197.118 164.800,196.738 164.228,196.583 163.523 C 196.429 162.820,196.054 161.997,195.751 161.694 C 195.448 161.391,195.200 160.638,195.200 160.020 C 195.200 159.403,194.953 158.693,194.651 158.442 C 194.348 158.191,193.978 157.058,193.828 155.924 C 193.677 154.790,193.357 153.494,193.117 153.045 C 192.510 151.910,192.303 143.561,192.832 141.499 C 193.071 140.564,193.477 138.774,193.734 137.520 C 193.990 136.265,194.425 135.014,194.700 134.740 C 194.975 134.465,195.200 133.556,195.200 132.720 C 195.200 131.673,195.377 131.200,195.768 131.200 C 196.081 131.200,196.452 130.672,196.594 130.028 C 196.736 129.383,197.110 128.641,197.426 128.379 C 197.742 128.117,198.000 127.558,198.000 127.138 C 198.000 126.719,198.270 126.271,198.600 126.145 C 198.930 126.018,199.200 125.574,199.200 125.157 C 199.200 124.741,199.470 124.400,199.800 124.400 C 200.130 124.400,200.400 124.228,200.400 124.018 C 200.400 123.808,200.805 123.207,201.300 122.681 C 201.795 122.156,202.770 121.113,203.466 120.363 C 205.046 118.662,205.856 118.000,206.356 118.000 C 206.571 118.000,206.860 117.640,207.000 117.200 C 207.140 116.760,207.517 116.400,207.840 116.400 C 208.162 116.400,208.529 116.130,208.655 115.800 C 208.782 115.470,209.114 115.200,209.394 115.200 C 209.673 115.200,210.126 114.930,210.400 114.600 C 210.674 114.270,211.163 114.000,211.486 114.000 C 211.809 114.000,212.531 113.640,213.091 113.200 C 213.650 112.760,214.539 112.400,215.066 112.400 C 215.594 112.400,216.129 112.130,216.255 111.800 C 216.404 111.413,217.022 111.200,217.994 111.200 C 218.846 111.200,219.718 110.939,220.000 110.600 C 220.274 110.270,220.971 109.998,221.549 109.996 C 222.127 109.993,223.417 109.743,224.416 109.440 C 225.415 109.137,228.025 108.766,230.216 108.615 C 232.765 108.439,234.427 108.135,234.831 107.770 C 235.230 107.411,236.346 107.200,237.855 107.200 C 239.339 107.200,240.542 106.977,241.024 106.613 C 241.451 106.290,242.453 106.020,243.251 106.013 C 244.049 106.006,244.922 105.735,245.191 105.411 C 245.460 105.086,246.307 104.704,247.072 104.560 C 247.838 104.416,248.559 104.052,248.675 103.749 C 248.791 103.447,249.322 103.200,249.855 103.200 C 250.389 103.200,250.929 102.930,251.055 102.600 C 251.182 102.270,251.619 102.000,252.027 102.000 C 252.435 102.000,253.091 101.662,253.484 101.250 C 253.878 100.837,254.605 100.375,255.100 100.223 C 255.595 100.071,256.000 99.778,256.000 99.573 C 256.000 99.368,256.276 99.200,256.613 99.200 C 256.949 99.200,257.329 98.930,257.455 98.600 C 257.582 98.270,258.004 98.000,258.394 98.000 C 258.783 98.000,259.326 98.270,259.600 98.600 M272.973 109.325 C 272.831 109.696,272.464 110.000,272.157 110.000 C 271.851 110.000,271.600 110.226,271.600 110.502 C 271.600 110.778,270.970 111.530,270.200 112.172 C 269.430 112.814,268.800 113.467,268.800 113.624 C 268.800 113.781,267.900 114.868,266.800 116.039 C 265.700 117.211,264.800 118.382,264.800 118.642 C 264.800 118.902,264.530 119.218,264.200 119.345 C 263.870 119.471,263.600 119.851,263.600 120.187 C 263.600 120.524,263.400 120.800,263.156 120.800 C 262.646 120.800,260.817 122.445,260.807 122.913 C 260.803 123.086,260.305 123.718,259.700 124.318 C 259.095 124.919,257.793 126.398,256.806 127.605 C 255.819 128.812,254.784 129.944,254.506 130.120 C 254.228 130.296,254.000 130.701,254.000 131.020 C 254.000 131.339,253.730 131.600,253.400 131.600 C 253.070 131.600,252.800 131.777,252.800 131.993 C 252.800 132.209,252.170 133.034,251.400 133.827 C 250.630 134.620,250.000 135.613,250.000 136.034 C 250.000 136.455,249.767 136.800,249.482 136.800 C 248.895 136.800,246.000 139.724,246.000 140.318 C 246.000 141.458,244.366 141.027,243.120 139.559 C 242.394 138.704,241.594 138.003,241.343 138.002 C 241.091 138.001,240.782 137.730,240.655 137.400 C 240.529 137.070,240.149 136.800,239.813 136.800 C 239.476 136.800,239.200 136.524,239.200 136.187 C 239.200 135.851,238.930 135.471,238.600 135.345 C 238.270 135.218,238.000 134.875,238.000 134.582 C 238.000 134.290,237.325 133.411,236.500 132.629 C 235.390 131.576,235.182 131.206,235.700 131.203 C 236.085 131.202,236.400 130.930,236.400 130.600 C 236.400 130.270,236.661 130.000,236.980 130.000 C 237.299 130.000,237.704 129.769,237.880 129.486 C 238.357 128.720,241.816 126.000,242.314 126.000 C 242.552 126.000,242.860 125.640,243.000 125.200 C 243.140 124.760,243.512 124.400,243.827 124.400 C 244.142 124.400,244.400 124.130,244.400 123.800 C 244.400 123.470,244.676 123.200,245.013 123.200 C 245.349 123.200,245.729 122.930,245.855 122.600 C 245.982 122.270,246.311 122.000,246.587 122.000 C 246.863 122.000,247.756 121.370,248.573 120.600 C 249.389 119.830,250.193 119.200,250.359 119.200 C 250.525 119.200,251.186 118.570,251.828 117.800 C 252.470 117.030,253.222 116.400,253.498 116.400 C 253.774 116.400,254.000 116.130,254.000 115.800 C 254.000 115.470,254.206 115.200,254.459 115.200 C 254.711 115.200,255.686 114.570,256.626 113.800 C 257.566 113.030,258.529 112.400,258.767 112.400 C 259.005 112.400,259.200 112.130,259.200 111.800 C 259.200 111.470,259.372 111.200,259.583 111.200 C 260.140 111.200,263.200 108.207,263.200 107.662 C 263.200 107.408,263.641 107.200,264.180 107.200 C 264.719 107.200,265.304 106.961,265.480 106.670 C 265.656 106.378,266.115 106.024,266.500 105.882 C 266.885 105.741,267.200 105.363,267.200 105.042 C 267.200 104.721,267.515 104.388,267.900 104.302 C 268.917 104.074,273.317 108.431,272.973 109.325 M226.000 130.413 C 226.000 130.640,226.405 130.989,226.900 131.188 C 227.590 131.465,227.636 131.555,227.100 131.575 C 226.715 131.589,226.400 131.870,226.400 132.200 C 226.400 132.530,226.124 132.800,225.787 132.800 C 225.451 132.800,225.071 133.070,224.945 133.400 C 224.631 134.217,222.599 134.163,221.605 133.311 C 220.662 132.504,220.536 131.200,221.400 131.200 C 221.730 131.200,222.000 130.930,222.000 130.600 C 222.000 130.147,222.489 130.000,224.000 130.000 C 225.108 130.000,226.000 130.184,226.000 130.413 M246.000 152.096 C 246.000 154.690,244.793 156.024,243.235 155.152 C 242.209 154.579,241.617 152.917,242.269 152.445 C 242.455 152.310,243.045 151.545,243.581 150.745 C 244.928 148.731,246.000 149.330,246.000 152.096 M159.300 291.096 C 157.785 291.477,156.800 291.936,156.800 292.262 C 156.800 292.558,156.629 292.800,156.421 292.800 C 155.824 292.800,154.001 294.632,153.987 295.246 C 153.980 295.551,153.710 296.149,153.387 296.576 C 152.581 297.643,152.590 302.133,153.400 302.943 C 153.730 303.273,154.000 303.823,154.000 304.166 C 154.000 305.928,157.534 308.326,160.525 308.594 C 167.938 309.257,242.043 308.630,242.576 307.900 C 242.858 307.515,243.383 307.200,243.744 307.200 C 244.105 307.200,244.400 306.973,244.400 306.696 C 244.400 306.419,244.760 305.968,245.200 305.693 C 245.640 305.418,246.000 304.947,246.000 304.646 C 246.000 304.344,246.270 303.874,246.600 303.600 C 247.051 303.226,247.200 302.218,247.200 299.538 C 247.200 296.740,247.071 295.925,246.600 295.745 C 246.270 295.618,246.000 295.189,246.000 294.791 C 246.000 293.835,243.389 291.801,241.171 291.028 C 238.477 290.090,163.051 290.152,159.300 291.096 M158.276 311.489 C 157.658 311.582,157.054 311.915,156.934 312.229 C 156.813 312.543,156.464 312.800,156.157 312.800 C 155.851 312.800,155.600 313.027,155.600 313.304 C 155.600 313.581,155.240 314.032,154.800 314.307 C 154.360 314.582,154.000 315.143,154.000 315.554 C 154.000 315.966,153.730 316.526,153.400 316.800 C 152.975 317.153,152.800 318.086,152.800 320.000 C 152.800 321.914,152.975 322.847,153.400 323.200 C 153.730 323.474,154.000 324.060,154.000 324.503 C 154.000 325.220,155.671 327.200,156.277 327.200 C 156.406 327.200,156.742 327.515,157.024 327.900 C 157.818 328.986,242.182 328.986,242.976 327.900 C 243.258 327.515,243.648 327.197,243.844 327.193 C 244.358 327.183,246.000 325.372,246.000 324.815 C 246.000 324.555,246.270 324.073,246.600 323.743 C 247.037 323.306,247.200 322.240,247.200 319.820 C 247.200 317.355,247.045 316.369,246.600 316.000 C 246.270 315.726,246.000 315.324,246.000 315.107 C 246.000 314.531,244.284 312.815,243.700 312.807 C 243.425 312.803,243.200 312.554,243.200 312.252 C 243.200 311.930,242.582 311.603,241.700 311.457 C 240.055 311.185,160.093 311.216,158.276 311.489 M166.300 331.665 C 165.199 332.067,164.848 332.935,165.600 333.400 C 165.820 333.536,166.000 333.907,166.000 334.224 C 166.000 334.777,166.232 335.111,168.000 337.100 C 168.440 337.595,168.800 338.110,168.800 338.244 C 168.800 338.585,170.540 340.385,170.878 340.393 C 171.030 340.397,171.840 341.029,172.678 341.798 C 173.515 342.567,174.406 343.197,174.657 343.198 C 174.909 343.199,175.218 343.470,175.345 343.800 C 175.471 344.130,175.811 344.400,176.099 344.400 C 176.387 344.400,176.930 344.760,177.307 345.200 C 177.684 345.640,178.354 346.000,178.796 346.000 C 179.244 346.000,179.600 346.266,179.600 346.600 C 179.600 347.019,180.022 347.200,181.000 347.200 C 181.928 347.200,182.400 347.387,182.400 347.755 C 182.400 348.071,182.991 348.422,183.771 348.568 C 184.525 348.710,185.204 349.011,185.279 349.238 C 185.355 349.466,186.223 349.756,187.209 349.884 C 188.194 350.012,189.355 350.361,189.789 350.658 C 190.987 351.481,209.130 351.440,210.224 350.613 C 210.651 350.290,211.543 350.020,212.206 350.013 C 212.869 350.006,214.084 349.640,214.904 349.200 C 215.725 348.760,216.673 348.400,217.011 348.400 C 217.349 348.400,217.729 348.130,217.855 347.800 C 217.982 347.470,218.522 347.200,219.055 347.200 C 219.589 347.200,220.129 346.930,220.255 346.600 C 220.382 346.270,220.915 346.000,221.439 346.000 C 221.964 346.000,222.618 345.640,222.893 345.200 C 223.168 344.760,223.799 344.400,224.296 344.400 C 224.793 344.400,225.200 344.244,225.200 344.054 C 225.200 343.864,225.920 343.210,226.800 342.600 C 227.680 341.990,228.400 341.246,228.400 340.946 C 228.400 340.646,228.601 340.400,228.847 340.400 C 230.045 340.400,235.353 333.692,235.119 332.474 C 235.048 332.106,234.452 331.691,233.795 331.550 C 231.744 331.112,167.517 331.221,166.300 331.665 " stroke="none" fill="#211f5e" fill-rule="evenodd"></path><path id="path2" d="M248.558 273.800 C 248.558 276.880,248.621 278.087,248.697 276.482 C 248.773 274.878,248.773 272.358,248.696 270.882 C 248.619 269.407,248.557 270.720,248.558 273.800 " stroke="none" fill="#404080" fill-rule="evenodd"></path><path id="path3" d="" stroke="none" fill="#800080" fill-rule="evenodd"></path><path id="path4" d="M222.893 54.400 C 222.893 55.170,222.975 55.485,223.076 55.100 C 223.176 54.715,223.176 54.085,223.076 53.700 C 222.975 53.315,222.893 53.630,222.893 54.400 M268.000 73.510 C 268.000 73.703,268.450 74.283,269.000 74.800 C 269.550 75.317,270.000 75.644,270.000 75.528 C 270.000 75.412,269.550 74.831,269.000 74.238 C 268.450 73.644,268.000 73.317,268.000 73.510 M125.258 94.314 C 125.006 94.398,124.800 94.654,124.800 94.882 C 124.800 95.146,125.005 95.128,125.361 94.832 C 125.682 94.566,125.982 94.528,126.061 94.744 C 126.137 94.951,126.421 94.880,126.692 94.586 C 127.188 94.047,126.469 93.910,125.258 94.314 M289.580 102.510 C 289.775 104.158,289.783 104.167,289.919 102.849 C 289.996 102.106,289.906 101.346,289.720 101.160 C 289.533 100.973,289.471 101.581,289.580 102.510 M224.400 109.600 C 223.915 109.914,223.972 109.989,224.700 109.994 C 225.195 109.997,225.600 109.820,225.600 109.600 C 225.600 109.099,225.176 109.099,224.400 109.600 M299.200 128.553 C 299.200 128.883,299.380 129.264,299.600 129.400 C 299.820 129.536,300.000 129.377,300.000 129.047 C 300.000 128.717,299.820 128.336,299.600 128.200 C 299.380 128.064,299.200 128.223,299.200 128.553 M100.300 129.431 C 100.135 129.597,100.000 130.099,100.000 130.547 C 100.000 131.135,100.121 131.239,100.438 130.922 C 100.678 130.682,100.813 130.180,100.738 129.807 C 100.662 129.433,100.465 129.264,100.300 129.431 M157.606 133.033 C 157.609 133.455,157.795 134.070,158.018 134.400 C 158.315 134.838,158.352 134.676,158.156 133.800 C 157.827 132.329,157.598 132.010,157.606 133.033 M233.200 137.717 C 233.530 138.003,234.047 138.498,234.349 138.818 C 234.819 139.316,234.835 139.277,234.460 138.547 C 234.219 138.078,233.702 137.583,233.311 137.446 C 232.692 137.230,232.678 137.265,233.200 137.717 M237.200 141.717 C 237.530 142.003,238.047 142.498,238.349 142.818 C 238.819 143.316,238.835 143.277,238.460 142.547 C 238.219 142.078,237.702 141.583,237.311 141.446 C 236.692 141.230,236.678 141.265,237.200 141.717 M99.903 170.602 C 100.009 171.158,100.254 171.710,100.448 171.830 C 101.025 172.186,100.847 170.537,100.255 170.045 C 99.813 169.679,99.746 169.785,99.903 170.602 M299.488 171.733 C 299.042 172.866,299.115 173.445,299.638 172.922 C 299.878 172.682,300.008 172.151,299.926 171.742 C 299.782 171.026,299.766 171.026,299.488 171.733 M151.358 275.000 C 151.358 278.080,151.421 279.287,151.497 277.682 C 151.573 276.078,151.573 273.558,151.496 272.082 C 151.419 270.607,151.357 271.920,151.358 275.000 M180.100 288.700 C 191.045 288.759,208.955 288.759,219.900 288.700 C 230.845 288.641,221.890 288.592,200.000 288.592 C 178.110 288.592,169.155 288.641,180.100 288.700 M180.130 290.300 C 191.312 290.359,209.492 290.359,220.530 290.300 C 231.569 290.241,222.420 290.192,200.200 290.192 C 177.980 290.192,168.949 290.241,180.130 290.300 " stroke="none" fill="#0000ff" fill-rule="evenodd"></path></g></svg>